G04 #@! TF.FileFunction,Soldermask,Top*
%FSLAX46Y46*%
G04 Gerber Fmt 4.6, Leading zero omitted, Abs format (unit mm)*
G04 Created by KiCad (PCBNEW 4.0.1-3.201512221401+6198~38~ubuntu15.10.1-stable) date Mon 19 Dec 2016 04:42:33 PM PST*
%MOMM*%
G01*
G04 APERTURE LIST*
%ADD10C,0.100000*%
%ADD11C,4.464000*%
%ADD12R,2.400000X2.000000*%
%ADD13R,2.400000X2.900000*%
%ADD14R,2.127200X2.127200*%
%ADD15O,2.127200X2.127200*%
%ADD16R,2.400000X2.100000*%
%ADD17R,2.100000X2.400000*%
%ADD18O,2.000000X2.000000*%
%ADD19R,2.900000X2.400000*%
%ADD20R,2.000000X2.400000*%
G04 APERTURE END LIST*
D10*
D11*
X100000000Y-50000000D03*
D12*
X121875000Y-72290000D03*
X117875000Y-72290000D03*
X126030000Y-72200000D03*
X130030000Y-72200000D03*
D13*
X105480000Y-55115000D03*
X101480000Y-55115000D03*
D12*
X121335000Y-56670000D03*
X117335000Y-56670000D03*
X126030000Y-56580000D03*
X130030000Y-56580000D03*
D14*
X105000000Y-92795000D03*
D15*
X105000000Y-90255000D03*
X107540000Y-92795000D03*
X107540000Y-90255000D03*
X110080000Y-92795000D03*
X110080000Y-90255000D03*
X112620000Y-92795000D03*
X112620000Y-90255000D03*
X115160000Y-92795000D03*
X115160000Y-90255000D03*
X117700000Y-92795000D03*
X117700000Y-90255000D03*
X120240000Y-92795000D03*
X120240000Y-90255000D03*
X122780000Y-92795000D03*
X122780000Y-90255000D03*
X125320000Y-92795000D03*
X125320000Y-90255000D03*
X127860000Y-92795000D03*
X127860000Y-90255000D03*
X130400000Y-92795000D03*
X130400000Y-90255000D03*
X132940000Y-92795000D03*
X132940000Y-90255000D03*
X135480000Y-92795000D03*
X135480000Y-90255000D03*
X138020000Y-92795000D03*
X138020000Y-90255000D03*
X140560000Y-92795000D03*
X140560000Y-90255000D03*
X143100000Y-92795000D03*
X143100000Y-90255000D03*
X145640000Y-92795000D03*
X145640000Y-90255000D03*
X148180000Y-92795000D03*
X148180000Y-90255000D03*
X150720000Y-92795000D03*
X150720000Y-90255000D03*
X153260000Y-92795000D03*
X153260000Y-90255000D03*
D14*
X105000000Y-51275000D03*
D15*
X105000000Y-48735000D03*
X107540000Y-51275000D03*
X107540000Y-48735000D03*
X110080000Y-51275000D03*
X110080000Y-48735000D03*
X112620000Y-51275000D03*
X112620000Y-48735000D03*
X115160000Y-51275000D03*
X115160000Y-48735000D03*
X117700000Y-51275000D03*
X117700000Y-48735000D03*
X120240000Y-51275000D03*
X120240000Y-48735000D03*
X122780000Y-51275000D03*
X122780000Y-48735000D03*
X125320000Y-51275000D03*
X125320000Y-48735000D03*
X127860000Y-51275000D03*
X127860000Y-48735000D03*
X130400000Y-51275000D03*
X130400000Y-48735000D03*
X132940000Y-51275000D03*
X132940000Y-48735000D03*
X135480000Y-51275000D03*
X135480000Y-48735000D03*
X138020000Y-51275000D03*
X138020000Y-48735000D03*
X140560000Y-51275000D03*
X140560000Y-48735000D03*
X143100000Y-51275000D03*
X143100000Y-48735000D03*
X145640000Y-51275000D03*
X145640000Y-48735000D03*
X148180000Y-51275000D03*
X148180000Y-48735000D03*
X150720000Y-51275000D03*
X150720000Y-48735000D03*
X153260000Y-51275000D03*
X153260000Y-48735000D03*
D16*
X102370000Y-71335000D03*
X106370000Y-71335000D03*
X102065000Y-75760000D03*
X106065000Y-75760000D03*
D17*
X102250000Y-63590000D03*
X102250000Y-59590000D03*
X106980000Y-59130000D03*
X106980000Y-63130000D03*
X106675000Y-80000000D03*
X106675000Y-84000000D03*
D18*
X145890000Y-60430000D03*
X143350000Y-60430000D03*
X140810000Y-60430000D03*
X138270000Y-60430000D03*
X135730000Y-60430000D03*
X133190000Y-60430000D03*
X130650000Y-60430000D03*
X128110000Y-60430000D03*
X125570000Y-60430000D03*
X123030000Y-60430000D03*
X120490000Y-60430000D03*
X117950000Y-60430000D03*
X115410000Y-60430000D03*
X112870000Y-60430000D03*
X112870000Y-68050000D03*
X115410000Y-68050000D03*
X117950000Y-68050000D03*
X120490000Y-68050000D03*
X123030000Y-68050000D03*
X125570000Y-68050000D03*
X128110000Y-68050000D03*
X130650000Y-68050000D03*
X133190000Y-68050000D03*
X135730000Y-68050000D03*
X138270000Y-68050000D03*
X140810000Y-68050000D03*
X143350000Y-68050000D03*
X145890000Y-68050000D03*
X145785000Y-75810000D03*
X143245000Y-75810000D03*
X140705000Y-75810000D03*
X138165000Y-75810000D03*
X135625000Y-75810000D03*
X133085000Y-75810000D03*
X130545000Y-75810000D03*
X128005000Y-75810000D03*
X125465000Y-75810000D03*
X122925000Y-75810000D03*
X120385000Y-75810000D03*
X117845000Y-75810000D03*
X115305000Y-75810000D03*
X112765000Y-75810000D03*
X112765000Y-83430000D03*
X115305000Y-83430000D03*
X117845000Y-83430000D03*
X120385000Y-83430000D03*
X122925000Y-83430000D03*
X125465000Y-83430000D03*
X128005000Y-83430000D03*
X130545000Y-83430000D03*
X133085000Y-83430000D03*
X135625000Y-83430000D03*
X138165000Y-83430000D03*
X140705000Y-83430000D03*
X143245000Y-83430000D03*
X145785000Y-83430000D03*
D11*
X158260000Y-50000000D03*
D19*
X100375000Y-89355000D03*
X100375000Y-85355000D03*
D20*
X97760000Y-56130000D03*
X97760000Y-60130000D03*
M02*
