G04 #@! TF.FileFunction,Copper,L2,Bot,Signal*
%FSLAX46Y46*%
G04 Gerber Fmt 4.6, Leading zero omitted, Abs format (unit mm)*
G04 Created by KiCad (PCBNEW 4.0.1-3.201512221401+6198~38~ubuntu15.10.1-stable) date Mon 19 Dec 2016 04:42:33 PM PST*
%MOMM*%
G01*
G04 APERTURE LIST*
%ADD10C,0.100000*%
%ADD11C,4.064000*%
%ADD12R,1.727200X1.727200*%
%ADD13O,1.727200X1.727200*%
%ADD14O,1.600000X1.600000*%
%ADD15C,0.600000*%
%ADD16C,0.500000*%
%ADD17C,0.250000*%
%ADD18C,0.254000*%
G04 APERTURE END LIST*
D10*
D11*
X100000000Y-50000000D03*
D12*
X105000000Y-92795000D03*
D13*
X105000000Y-90255000D03*
X107540000Y-92795000D03*
X107540000Y-90255000D03*
X110080000Y-92795000D03*
X110080000Y-90255000D03*
X112620000Y-92795000D03*
X112620000Y-90255000D03*
X115160000Y-92795000D03*
X115160000Y-90255000D03*
X117700000Y-92795000D03*
X117700000Y-90255000D03*
X120240000Y-92795000D03*
X120240000Y-90255000D03*
X122780000Y-92795000D03*
X122780000Y-90255000D03*
X125320000Y-92795000D03*
X125320000Y-90255000D03*
X127860000Y-92795000D03*
X127860000Y-90255000D03*
X130400000Y-92795000D03*
X130400000Y-90255000D03*
X132940000Y-92795000D03*
X132940000Y-90255000D03*
X135480000Y-92795000D03*
X135480000Y-90255000D03*
X138020000Y-92795000D03*
X138020000Y-90255000D03*
X140560000Y-92795000D03*
X140560000Y-90255000D03*
X143100000Y-92795000D03*
X143100000Y-90255000D03*
X145640000Y-92795000D03*
X145640000Y-90255000D03*
X148180000Y-92795000D03*
X148180000Y-90255000D03*
X150720000Y-92795000D03*
X150720000Y-90255000D03*
X153260000Y-92795000D03*
X153260000Y-90255000D03*
D12*
X105000000Y-51275000D03*
D13*
X105000000Y-48735000D03*
X107540000Y-51275000D03*
X107540000Y-48735000D03*
X110080000Y-51275000D03*
X110080000Y-48735000D03*
X112620000Y-51275000D03*
X112620000Y-48735000D03*
X115160000Y-51275000D03*
X115160000Y-48735000D03*
X117700000Y-51275000D03*
X117700000Y-48735000D03*
X120240000Y-51275000D03*
X120240000Y-48735000D03*
X122780000Y-51275000D03*
X122780000Y-48735000D03*
X125320000Y-51275000D03*
X125320000Y-48735000D03*
X127860000Y-51275000D03*
X127860000Y-48735000D03*
X130400000Y-51275000D03*
X130400000Y-48735000D03*
X132940000Y-51275000D03*
X132940000Y-48735000D03*
X135480000Y-51275000D03*
X135480000Y-48735000D03*
X138020000Y-51275000D03*
X138020000Y-48735000D03*
X140560000Y-51275000D03*
X140560000Y-48735000D03*
X143100000Y-51275000D03*
X143100000Y-48735000D03*
X145640000Y-51275000D03*
X145640000Y-48735000D03*
X148180000Y-51275000D03*
X148180000Y-48735000D03*
X150720000Y-51275000D03*
X150720000Y-48735000D03*
X153260000Y-51275000D03*
X153260000Y-48735000D03*
D14*
X145890000Y-60430000D03*
X143350000Y-60430000D03*
X140810000Y-60430000D03*
X138270000Y-60430000D03*
X135730000Y-60430000D03*
X133190000Y-60430000D03*
X130650000Y-60430000D03*
X128110000Y-60430000D03*
X125570000Y-60430000D03*
X123030000Y-60430000D03*
X120490000Y-60430000D03*
X117950000Y-60430000D03*
X115410000Y-60430000D03*
X112870000Y-60430000D03*
X112870000Y-68050000D03*
X115410000Y-68050000D03*
X117950000Y-68050000D03*
X120490000Y-68050000D03*
X123030000Y-68050000D03*
X125570000Y-68050000D03*
X128110000Y-68050000D03*
X130650000Y-68050000D03*
X133190000Y-68050000D03*
X135730000Y-68050000D03*
X138270000Y-68050000D03*
X140810000Y-68050000D03*
X143350000Y-68050000D03*
X145890000Y-68050000D03*
X145785000Y-75810000D03*
X143245000Y-75810000D03*
X140705000Y-75810000D03*
X138165000Y-75810000D03*
X135625000Y-75810000D03*
X133085000Y-75810000D03*
X130545000Y-75810000D03*
X128005000Y-75810000D03*
X125465000Y-75810000D03*
X122925000Y-75810000D03*
X120385000Y-75810000D03*
X117845000Y-75810000D03*
X115305000Y-75810000D03*
X112765000Y-75810000D03*
X112765000Y-83430000D03*
X115305000Y-83430000D03*
X117845000Y-83430000D03*
X120385000Y-83430000D03*
X122925000Y-83430000D03*
X125465000Y-83430000D03*
X128005000Y-83430000D03*
X130545000Y-83430000D03*
X133085000Y-83430000D03*
X135625000Y-83430000D03*
X138165000Y-83430000D03*
X140705000Y-83430000D03*
X143245000Y-83430000D03*
X145785000Y-83430000D03*
D11*
X158260000Y-50000000D03*
D15*
X102830000Y-82210000D03*
X126968400Y-68753600D03*
X125274800Y-87935100D03*
X123414700Y-88637300D03*
X125328400Y-80832200D03*
D16*
X102830000Y-91988600D02*
X102830000Y-82210000D01*
X103636000Y-92795000D02*
X102830000Y-91988600D01*
X105000000Y-92795000D02*
X103636000Y-92795000D01*
D17*
X126968400Y-65493700D02*
X126968400Y-68753600D01*
X123030000Y-61555300D02*
X126968400Y-65493700D01*
X123030000Y-60430000D02*
X123030000Y-61555300D01*
X146828900Y-90626600D02*
X146828900Y-90255000D01*
X147646200Y-91443900D02*
X146828900Y-90626600D01*
X148532200Y-91443900D02*
X147646200Y-91443900D01*
X149369000Y-92280700D02*
X148532200Y-91443900D01*
X149369000Y-93130500D02*
X149369000Y-92280700D01*
X150223400Y-93984900D02*
X149369000Y-93130500D01*
X151252700Y-93984900D02*
X150223400Y-93984900D01*
X152071100Y-93166500D02*
X151252700Y-93984900D01*
X152071100Y-92795000D02*
X152071100Y-93166500D01*
X153260000Y-92795000D02*
X152071100Y-92795000D01*
X146228600Y-90255000D02*
X146828900Y-90255000D01*
X146228600Y-90255000D02*
X145640000Y-90255000D01*
X141748900Y-90626600D02*
X141748900Y-90255000D01*
X142566200Y-91443900D02*
X141748900Y-90626600D01*
X143633700Y-91443900D02*
X142566200Y-91443900D01*
X144451100Y-90626500D02*
X143633700Y-91443900D01*
X144451100Y-90255000D02*
X144451100Y-90626500D01*
X145640000Y-90255000D02*
X144451100Y-90255000D01*
X140560000Y-90255000D02*
X141748900Y-90255000D01*
X129048900Y-49106600D02*
X129048900Y-48735000D01*
X129866200Y-49923900D02*
X129048900Y-49106600D01*
X133311600Y-49923900D02*
X129866200Y-49923900D01*
X134291100Y-50903400D02*
X133311600Y-49923900D01*
X134291100Y-51275000D02*
X134291100Y-50903400D01*
X135480000Y-51275000D02*
X134291100Y-51275000D01*
X127860000Y-48735000D02*
X129048900Y-48735000D01*
X110080000Y-90255000D02*
X111268900Y-90255000D01*
X127860000Y-90255000D02*
X127860000Y-91443900D01*
X111268900Y-90626600D02*
X111268900Y-90255000D01*
X112248400Y-91606100D02*
X111268900Y-90626600D01*
X113153800Y-91606100D02*
X112248400Y-91606100D01*
X113971100Y-92423400D02*
X113153800Y-91606100D01*
X113971100Y-92795000D02*
X113971100Y-92423400D01*
X115160000Y-92795000D02*
X115748600Y-92795000D01*
X115160000Y-92795000D02*
X113971100Y-92795000D01*
X120240000Y-90255000D02*
X119051100Y-90255000D01*
X117123300Y-93983900D02*
X115976500Y-92837100D01*
X125856300Y-93983900D02*
X117123300Y-93983900D01*
X126671100Y-93169100D02*
X125856300Y-93983900D01*
X126671100Y-92272500D02*
X126671100Y-93169100D01*
X127499700Y-91443900D02*
X126671100Y-92272500D01*
X127860000Y-91443900D02*
X127499700Y-91443900D01*
X115790700Y-92837100D02*
X115976500Y-92837100D01*
X115748600Y-92795000D02*
X115790700Y-92837100D01*
X119051100Y-90626600D02*
X119051100Y-90255000D01*
X118233800Y-91443900D02*
X119051100Y-90626600D01*
X117369700Y-91443900D02*
X118233800Y-91443900D01*
X115976500Y-92837100D02*
X117369700Y-91443900D01*
X119051100Y-85761400D02*
X119051100Y-90255000D01*
X117845000Y-84555300D02*
X119051100Y-85761400D01*
X117845000Y-83992600D02*
X117845000Y-84555300D01*
X117845000Y-83992600D02*
X117845000Y-83430000D01*
X116535300Y-70300600D02*
X115410000Y-69175300D01*
X116535300Y-80995000D02*
X116535300Y-70300600D01*
X117845000Y-82304700D02*
X116535300Y-80995000D01*
X117845000Y-83430000D02*
X117845000Y-82304700D01*
X115410000Y-68050000D02*
X115410000Y-69175300D01*
X114278200Y-94453200D02*
X112620000Y-92795000D01*
X127899500Y-94453200D02*
X114278200Y-94453200D01*
X129130000Y-93222700D02*
X127899500Y-94453200D01*
X129130000Y-88510300D02*
X129130000Y-93222700D01*
X133085000Y-84555300D02*
X129130000Y-88510300D01*
X133085000Y-83430000D02*
X133085000Y-84555300D01*
X103770600Y-80216700D02*
X112620000Y-89066100D01*
X103770600Y-50297700D02*
X103770600Y-80216700D01*
X103982300Y-50086000D02*
X103770600Y-50297700D01*
X105388800Y-50086000D02*
X103982300Y-50086000D01*
X106301800Y-49173000D02*
X105388800Y-50086000D01*
X106301800Y-48241100D02*
X106301800Y-49173000D01*
X107085500Y-47457400D02*
X106301800Y-48241100D01*
X110525000Y-47457400D02*
X107085500Y-47457400D01*
X111431100Y-48363500D02*
X110525000Y-47457400D01*
X111431100Y-48735000D02*
X111431100Y-48363500D01*
X112620000Y-48735000D02*
X111431100Y-48735000D01*
X112620000Y-90255000D02*
X112620000Y-89066100D01*
X106301600Y-80207700D02*
X115160000Y-89066100D01*
X106301600Y-50775400D02*
X106301600Y-80207700D01*
X107153100Y-49923900D02*
X106301600Y-50775400D01*
X113153800Y-49923900D02*
X107153100Y-49923900D01*
X113971100Y-49106600D02*
X113153800Y-49923900D01*
X113971100Y-48735000D02*
X113971100Y-49106600D01*
X115160000Y-48735000D02*
X113971100Y-48735000D01*
X115160000Y-90255000D02*
X115160000Y-89066100D01*
X128005000Y-83430000D02*
X128005000Y-84555300D01*
X117700000Y-92795000D02*
X118888900Y-92795000D01*
X118888900Y-92423400D02*
X118888900Y-92795000D01*
X119706200Y-91606100D02*
X118888900Y-92423400D01*
X123121900Y-91606100D02*
X119706200Y-91606100D01*
X124040000Y-90688000D02*
X123121900Y-91606100D01*
X124040000Y-88285600D02*
X124040000Y-90688000D01*
X127770300Y-84555300D02*
X124040000Y-88285600D01*
X128005000Y-84555300D02*
X127770300Y-84555300D01*
X129419700Y-83790200D02*
X125274800Y-87935100D01*
X129419700Y-83430000D02*
X129419700Y-83790200D01*
X130545000Y-83430000D02*
X129419700Y-83430000D01*
X138165000Y-75810000D02*
X137039700Y-75810000D01*
X123414700Y-88274000D02*
X123414700Y-88637300D01*
X126590400Y-85098300D02*
X123414700Y-88274000D01*
X126590400Y-83210900D02*
X126590400Y-85098300D01*
X127685900Y-82115400D02*
X126590400Y-83210900D01*
X128447100Y-82115400D02*
X127685900Y-82115400D01*
X134355000Y-76207500D02*
X128447100Y-82115400D01*
X134355000Y-75479600D02*
X134355000Y-76207500D01*
X135184300Y-74650300D02*
X134355000Y-75479600D01*
X136161300Y-74650300D02*
X135184300Y-74650300D01*
X137039700Y-75528700D02*
X136161300Y-74650300D01*
X137039700Y-75810000D02*
X137039700Y-75528700D01*
X123968900Y-92423400D02*
X123968900Y-92795000D01*
X124786200Y-91606100D02*
X123968900Y-92423400D01*
X125695000Y-91606100D02*
X124786200Y-91606100D01*
X126562900Y-90738200D02*
X125695000Y-91606100D01*
X126562900Y-89059000D02*
X126562900Y-90738200D01*
X131815000Y-83806900D02*
X126562900Y-89059000D01*
X131815000Y-80745300D02*
X131815000Y-83806900D01*
X135625000Y-76935300D02*
X131815000Y-80745300D01*
X135625000Y-75810000D02*
X135625000Y-76935300D01*
X122780000Y-92795000D02*
X123968900Y-92795000D01*
X128110000Y-68050000D02*
X128110000Y-69175300D01*
X122780000Y-90255000D02*
X122780000Y-89066100D01*
X122780000Y-88271800D02*
X122780000Y-89066100D01*
X124282000Y-86769800D02*
X122780000Y-88271800D01*
X124282000Y-73003300D02*
X124282000Y-86769800D01*
X128110000Y-69175300D02*
X124282000Y-73003300D01*
X126735000Y-79425600D02*
X125328400Y-80832200D01*
X126735000Y-73090300D02*
X126735000Y-79425600D01*
X130650000Y-69175300D02*
X126735000Y-73090300D01*
X130650000Y-68050000D02*
X130650000Y-69175300D01*
X131588900Y-93166500D02*
X131588900Y-92795000D01*
X132873300Y-94450900D02*
X131588900Y-93166500D01*
X153305700Y-94450900D02*
X132873300Y-94450900D01*
X154479700Y-93276900D02*
X153305700Y-94450900D01*
X154479700Y-82912000D02*
X154479700Y-93276900D01*
X140743000Y-69175300D02*
X154479700Y-82912000D01*
X140239200Y-69175300D02*
X140743000Y-69175300D01*
X139395300Y-68331400D02*
X140239200Y-69175300D01*
X139395300Y-68050000D02*
X139395300Y-68331400D01*
X138270000Y-68050000D02*
X139395300Y-68050000D01*
X130400000Y-92795000D02*
X131588900Y-92795000D01*
X140705000Y-75810000D02*
X140705000Y-76935300D01*
X134499600Y-84966500D02*
X130400000Y-89066100D01*
X134499600Y-82859400D02*
X134499600Y-84966500D01*
X140423700Y-76935300D02*
X134499600Y-82859400D01*
X140705000Y-76935300D02*
X140423700Y-76935300D01*
X130400000Y-90255000D02*
X130400000Y-89066100D01*
X134128900Y-90626600D02*
X134128900Y-90255000D01*
X134946200Y-91443900D02*
X134128900Y-90626600D01*
X136029100Y-91443900D02*
X134946200Y-91443900D01*
X136750000Y-90723000D02*
X136029100Y-91443900D01*
X136750000Y-89838300D02*
X136750000Y-90723000D01*
X142033000Y-84555300D02*
X136750000Y-89838300D01*
X143815800Y-84555300D02*
X142033000Y-84555300D01*
X144659700Y-83711400D02*
X143815800Y-84555300D01*
X144659700Y-83430000D02*
X144659700Y-83711400D01*
X145785000Y-83430000D02*
X144659700Y-83430000D01*
X132940000Y-90255000D02*
X134128900Y-90255000D01*
X136668900Y-89066100D02*
X135480000Y-89066100D01*
X142119700Y-83615300D02*
X136668900Y-89066100D01*
X142119700Y-83430000D02*
X142119700Y-83615300D01*
X143245000Y-83430000D02*
X142119700Y-83430000D01*
X135480000Y-90255000D02*
X135480000Y-89066100D01*
X133190000Y-68050000D02*
X134315300Y-68050000D01*
X143100000Y-90255000D02*
X143100000Y-89066100D01*
X146917000Y-85249100D02*
X143100000Y-89066100D01*
X146917000Y-81881000D02*
X146917000Y-85249100D01*
X141830400Y-76794400D02*
X146917000Y-81881000D01*
X141830400Y-75293200D02*
X141830400Y-76794400D01*
X135712500Y-69175300D02*
X141830400Y-75293200D01*
X135159200Y-69175300D02*
X135712500Y-69175300D01*
X134315300Y-68331400D02*
X135159200Y-69175300D01*
X134315300Y-68050000D02*
X134315300Y-68331400D01*
X145785000Y-75810000D02*
X145785000Y-76935300D01*
X150720000Y-92795000D02*
X150720000Y-91606100D01*
X151091600Y-91606100D02*
X150720000Y-91606100D01*
X151908900Y-90788800D02*
X151091600Y-91606100D01*
X151908900Y-83059200D02*
X151908900Y-90788800D01*
X145785000Y-76935300D02*
X151908900Y-83059200D01*
X150720000Y-84410300D02*
X150720000Y-90255000D01*
X143245000Y-76935300D02*
X150720000Y-84410300D01*
X143245000Y-75810000D02*
X143245000Y-76935300D01*
X108569200Y-52463900D02*
X107540000Y-52463900D01*
X115410000Y-59304700D02*
X108569200Y-52463900D01*
X115410000Y-60430000D02*
X115410000Y-59304700D01*
X107540000Y-51275000D02*
X107540000Y-52463900D01*
X114284700Y-62680600D02*
X115410000Y-61555300D01*
X114284700Y-73664400D02*
X114284700Y-62680600D01*
X115305000Y-74684700D02*
X114284700Y-73664400D01*
X115410000Y-60430000D02*
X115410000Y-61555300D01*
X115305000Y-75810000D02*
X115305000Y-74684700D01*
X117845000Y-75810000D02*
X117845000Y-74684700D01*
X117950000Y-60992600D02*
X117950000Y-61555300D01*
X117950000Y-60992600D02*
X117950000Y-60430000D01*
X119075300Y-73454400D02*
X117845000Y-74684700D01*
X119075300Y-63529700D02*
X119075300Y-73454400D01*
X117950000Y-62404400D02*
X119075300Y-63529700D01*
X117950000Y-61555300D02*
X117950000Y-62404400D01*
X111109200Y-52463900D02*
X117950000Y-59304700D01*
X110080000Y-52463900D02*
X111109200Y-52463900D01*
X117950000Y-60430000D02*
X117950000Y-59304700D01*
X110080000Y-51275000D02*
X110080000Y-52463900D01*
X121799700Y-81179400D02*
X122925000Y-82304700D01*
X121799700Y-65391900D02*
X121799700Y-81179400D01*
X119300400Y-62892600D02*
X121799700Y-65391900D01*
X119300400Y-59144300D02*
X119300400Y-62892600D01*
X112620000Y-52463900D02*
X119300400Y-59144300D01*
X112620000Y-51275000D02*
X112620000Y-52463900D01*
X122925000Y-83430000D02*
X122925000Y-82304700D01*
X125465000Y-83430000D02*
X125465000Y-82304700D01*
X132940000Y-51275000D02*
X132940000Y-52463900D01*
X125655600Y-82304700D02*
X125465000Y-82304700D01*
X131920000Y-76040300D02*
X125655600Y-82304700D01*
X131920000Y-53483900D02*
X131920000Y-76040300D01*
X132940000Y-52463900D02*
X131920000Y-53483900D01*
D18*
G36*
X160804233Y-49173591D02*
X160522291Y-48491239D01*
X159772707Y-47740345D01*
X158792827Y-47333464D01*
X157731828Y-47332538D01*
X156751239Y-47737709D01*
X156000345Y-48487293D01*
X155593464Y-49467173D01*
X155592538Y-50528172D01*
X155997709Y-51508761D01*
X156747293Y-52259655D01*
X157727173Y-52666536D01*
X158788172Y-52667462D01*
X159768761Y-52262291D01*
X160519655Y-51512707D01*
X160800237Y-50836990D01*
X160693306Y-95342495D01*
X127905306Y-95212045D01*
X128190339Y-95155348D01*
X128436901Y-94990601D01*
X129467945Y-93959557D01*
X129797152Y-94179526D01*
X130370641Y-94293600D01*
X130429359Y-94293600D01*
X131002848Y-94179526D01*
X131317128Y-93969530D01*
X132335899Y-94988301D01*
X132582461Y-95153048D01*
X132873300Y-95210900D01*
X153305700Y-95210900D01*
X153596539Y-95153048D01*
X153843101Y-94988301D01*
X155017101Y-93814301D01*
X155181848Y-93567739D01*
X155239700Y-93276900D01*
X155239700Y-82912000D01*
X155181848Y-82621161D01*
X155181848Y-82621160D01*
X155017101Y-82374599D01*
X141771116Y-69128614D01*
X141824698Y-69092811D01*
X142080000Y-68710725D01*
X142335302Y-69092811D01*
X142800849Y-69403880D01*
X143350000Y-69513113D01*
X143899151Y-69403880D01*
X144364698Y-69092811D01*
X144620000Y-68710725D01*
X144875302Y-69092811D01*
X145340849Y-69403880D01*
X145890000Y-69513113D01*
X146439151Y-69403880D01*
X146904698Y-69092811D01*
X147215767Y-68627264D01*
X147325000Y-68078113D01*
X147325000Y-68021887D01*
X147215767Y-67472736D01*
X146904698Y-67007189D01*
X146439151Y-66696120D01*
X145890000Y-66586887D01*
X145340849Y-66696120D01*
X144875302Y-67007189D01*
X144620000Y-67389275D01*
X144364698Y-67007189D01*
X143899151Y-66696120D01*
X143350000Y-66586887D01*
X142800849Y-66696120D01*
X142335302Y-67007189D01*
X142080000Y-67389275D01*
X141824698Y-67007189D01*
X141359151Y-66696120D01*
X140810000Y-66586887D01*
X140260849Y-66696120D01*
X139795302Y-67007189D01*
X139581576Y-67327053D01*
X139485679Y-67307978D01*
X139284698Y-67007189D01*
X138819151Y-66696120D01*
X138270000Y-66586887D01*
X137720849Y-66696120D01*
X137255302Y-67007189D01*
X137000000Y-67389275D01*
X136744698Y-67007189D01*
X136279151Y-66696120D01*
X135730000Y-66586887D01*
X135180849Y-66696120D01*
X134715302Y-67007189D01*
X134501576Y-67327053D01*
X134405679Y-67307978D01*
X134204698Y-67007189D01*
X133739151Y-66696120D01*
X133190000Y-66586887D01*
X132680000Y-66688332D01*
X132680000Y-61791668D01*
X133190000Y-61893113D01*
X133739151Y-61783880D01*
X134204698Y-61472811D01*
X134460000Y-61090725D01*
X134715302Y-61472811D01*
X135180849Y-61783880D01*
X135730000Y-61893113D01*
X136279151Y-61783880D01*
X136744698Y-61472811D01*
X137000000Y-61090725D01*
X137255302Y-61472811D01*
X137720849Y-61783880D01*
X138270000Y-61893113D01*
X138819151Y-61783880D01*
X139284698Y-61472811D01*
X139540000Y-61090725D01*
X139795302Y-61472811D01*
X140260849Y-61783880D01*
X140810000Y-61893113D01*
X141359151Y-61783880D01*
X141824698Y-61472811D01*
X142080000Y-61090725D01*
X142335302Y-61472811D01*
X142800849Y-61783880D01*
X143350000Y-61893113D01*
X143899151Y-61783880D01*
X144364698Y-61472811D01*
X144620000Y-61090725D01*
X144875302Y-61472811D01*
X145340849Y-61783880D01*
X145890000Y-61893113D01*
X146439151Y-61783880D01*
X146904698Y-61472811D01*
X147215767Y-61007264D01*
X147325000Y-60458113D01*
X147325000Y-60401887D01*
X147215767Y-59852736D01*
X146904698Y-59387189D01*
X146439151Y-59076120D01*
X145890000Y-58966887D01*
X145340849Y-59076120D01*
X144875302Y-59387189D01*
X144620000Y-59769275D01*
X144364698Y-59387189D01*
X143899151Y-59076120D01*
X143350000Y-58966887D01*
X142800849Y-59076120D01*
X142335302Y-59387189D01*
X142080000Y-59769275D01*
X141824698Y-59387189D01*
X141359151Y-59076120D01*
X140810000Y-58966887D01*
X140260849Y-59076120D01*
X139795302Y-59387189D01*
X139540000Y-59769275D01*
X139284698Y-59387189D01*
X138819151Y-59076120D01*
X138270000Y-58966887D01*
X137720849Y-59076120D01*
X137255302Y-59387189D01*
X137000000Y-59769275D01*
X136744698Y-59387189D01*
X136279151Y-59076120D01*
X135730000Y-58966887D01*
X135180849Y-59076120D01*
X134715302Y-59387189D01*
X134460000Y-59769275D01*
X134204698Y-59387189D01*
X133739151Y-59076120D01*
X133190000Y-58966887D01*
X132680000Y-59068332D01*
X132680000Y-53798702D01*
X133477401Y-53001301D01*
X133642148Y-52754739D01*
X133679211Y-52568411D01*
X134029029Y-52334670D01*
X134209992Y-52063839D01*
X134591510Y-52481821D01*
X135120973Y-52729968D01*
X135353000Y-52609469D01*
X135353000Y-51402000D01*
X135333000Y-51402000D01*
X135333000Y-51148000D01*
X135353000Y-51148000D01*
X135353000Y-51128000D01*
X135607000Y-51128000D01*
X135607000Y-51148000D01*
X135627000Y-51148000D01*
X135627000Y-51402000D01*
X135607000Y-51402000D01*
X135607000Y-52609469D01*
X135839027Y-52729968D01*
X136368490Y-52481821D01*
X136750008Y-52063839D01*
X136930971Y-52334670D01*
X137417152Y-52659526D01*
X137990641Y-52773600D01*
X138049359Y-52773600D01*
X138622848Y-52659526D01*
X139109029Y-52334670D01*
X139290000Y-52063828D01*
X139470971Y-52334670D01*
X139957152Y-52659526D01*
X140530641Y-52773600D01*
X140589359Y-52773600D01*
X141162848Y-52659526D01*
X141649029Y-52334670D01*
X141830000Y-52063828D01*
X142010971Y-52334670D01*
X142497152Y-52659526D01*
X143070641Y-52773600D01*
X143129359Y-52773600D01*
X143702848Y-52659526D01*
X144189029Y-52334670D01*
X144370000Y-52063828D01*
X144550971Y-52334670D01*
X145037152Y-52659526D01*
X145610641Y-52773600D01*
X145669359Y-52773600D01*
X146242848Y-52659526D01*
X146729029Y-52334670D01*
X146910000Y-52063828D01*
X147090971Y-52334670D01*
X147577152Y-52659526D01*
X148150641Y-52773600D01*
X148209359Y-52773600D01*
X148782848Y-52659526D01*
X149269029Y-52334670D01*
X149450000Y-52063828D01*
X149630971Y-52334670D01*
X150117152Y-52659526D01*
X150690641Y-52773600D01*
X150749359Y-52773600D01*
X151322848Y-52659526D01*
X151809029Y-52334670D01*
X151989992Y-52063839D01*
X152371510Y-52481821D01*
X152900973Y-52729968D01*
X153133000Y-52609469D01*
X153133000Y-51402000D01*
X153387000Y-51402000D01*
X153387000Y-52609469D01*
X153619027Y-52729968D01*
X154148490Y-52481821D01*
X154542688Y-52049947D01*
X154714958Y-51634026D01*
X154593817Y-51402000D01*
X153387000Y-51402000D01*
X153133000Y-51402000D01*
X153113000Y-51402000D01*
X153113000Y-51148000D01*
X153133000Y-51148000D01*
X153133000Y-51128000D01*
X153387000Y-51128000D01*
X153387000Y-51148000D01*
X154593817Y-51148000D01*
X154714958Y-50915974D01*
X154542688Y-50500053D01*
X154148490Y-50068179D01*
X154025772Y-50010664D01*
X154349029Y-49794670D01*
X154673885Y-49308489D01*
X154787959Y-48735000D01*
X154673885Y-48161511D01*
X154349029Y-47675330D01*
X153862848Y-47350474D01*
X153289359Y-47236400D01*
X153230641Y-47236400D01*
X152657152Y-47350474D01*
X152170971Y-47675330D01*
X151990000Y-47946172D01*
X151809029Y-47675330D01*
X151322848Y-47350474D01*
X150749359Y-47236400D01*
X150690641Y-47236400D01*
X150117152Y-47350474D01*
X149630971Y-47675330D01*
X149450000Y-47946172D01*
X149269029Y-47675330D01*
X148782848Y-47350474D01*
X148209359Y-47236400D01*
X148150641Y-47236400D01*
X147577152Y-47350474D01*
X147090971Y-47675330D01*
X146910008Y-47946161D01*
X146528490Y-47528179D01*
X145999027Y-47280032D01*
X145767000Y-47400531D01*
X145767000Y-48608000D01*
X145787000Y-48608000D01*
X145787000Y-48862000D01*
X145767000Y-48862000D01*
X145767000Y-48882000D01*
X145513000Y-48882000D01*
X145513000Y-48862000D01*
X145493000Y-48862000D01*
X145493000Y-48608000D01*
X145513000Y-48608000D01*
X145513000Y-47400531D01*
X145280973Y-47280032D01*
X144751510Y-47528179D01*
X144369992Y-47946161D01*
X144189029Y-47675330D01*
X143702848Y-47350474D01*
X143129359Y-47236400D01*
X143070641Y-47236400D01*
X142497152Y-47350474D01*
X142010971Y-47675330D01*
X141830008Y-47946161D01*
X141448490Y-47528179D01*
X140919027Y-47280032D01*
X140687000Y-47400531D01*
X140687000Y-48608000D01*
X140707000Y-48608000D01*
X140707000Y-48862000D01*
X140687000Y-48862000D01*
X140687000Y-48882000D01*
X140433000Y-48882000D01*
X140433000Y-48862000D01*
X140413000Y-48862000D01*
X140413000Y-48608000D01*
X140433000Y-48608000D01*
X140433000Y-47400531D01*
X140200973Y-47280032D01*
X139671510Y-47528179D01*
X139289992Y-47946161D01*
X139109029Y-47675330D01*
X138622848Y-47350474D01*
X138049359Y-47236400D01*
X137990641Y-47236400D01*
X137417152Y-47350474D01*
X136930971Y-47675330D01*
X136750000Y-47946172D01*
X136569029Y-47675330D01*
X136082848Y-47350474D01*
X135509359Y-47236400D01*
X135450641Y-47236400D01*
X134877152Y-47350474D01*
X134390971Y-47675330D01*
X134210000Y-47946172D01*
X134029029Y-47675330D01*
X133542848Y-47350474D01*
X132969359Y-47236400D01*
X132910641Y-47236400D01*
X132337152Y-47350474D01*
X131850971Y-47675330D01*
X131670000Y-47946172D01*
X131489029Y-47675330D01*
X131002848Y-47350474D01*
X130429359Y-47236400D01*
X130370641Y-47236400D01*
X129797152Y-47350474D01*
X129310971Y-47675330D01*
X129130008Y-47946161D01*
X128748490Y-47528179D01*
X128219027Y-47280032D01*
X127987000Y-47400531D01*
X127987000Y-48608000D01*
X128007000Y-48608000D01*
X128007000Y-48862000D01*
X127987000Y-48862000D01*
X127987000Y-48882000D01*
X127733000Y-48882000D01*
X127733000Y-48862000D01*
X127713000Y-48862000D01*
X127713000Y-48608000D01*
X127733000Y-48608000D01*
X127733000Y-47400531D01*
X127500973Y-47280032D01*
X126971510Y-47528179D01*
X126589992Y-47946161D01*
X126409029Y-47675330D01*
X125922848Y-47350474D01*
X125349359Y-47236400D01*
X125290641Y-47236400D01*
X124717152Y-47350474D01*
X124230971Y-47675330D01*
X124050000Y-47946172D01*
X123869029Y-47675330D01*
X123382848Y-47350474D01*
X122809359Y-47236400D01*
X122750641Y-47236400D01*
X122177152Y-47350474D01*
X121690971Y-47675330D01*
X121510008Y-47946161D01*
X121128490Y-47528179D01*
X120599027Y-47280032D01*
X120367000Y-47400531D01*
X120367000Y-48608000D01*
X120387000Y-48608000D01*
X120387000Y-48862000D01*
X120367000Y-48862000D01*
X120367000Y-48882000D01*
X120113000Y-48882000D01*
X120113000Y-48862000D01*
X120093000Y-48862000D01*
X120093000Y-48608000D01*
X120113000Y-48608000D01*
X120113000Y-47400531D01*
X119880973Y-47280032D01*
X119351510Y-47528179D01*
X118969992Y-47946161D01*
X118789029Y-47675330D01*
X118302848Y-47350474D01*
X117729359Y-47236400D01*
X117670641Y-47236400D01*
X117097152Y-47350474D01*
X116610971Y-47675330D01*
X116430000Y-47946172D01*
X116249029Y-47675330D01*
X115762848Y-47350474D01*
X115189359Y-47236400D01*
X115130641Y-47236400D01*
X114557152Y-47350474D01*
X114070971Y-47675330D01*
X113890000Y-47946172D01*
X113709029Y-47675330D01*
X113222848Y-47350474D01*
X112649359Y-47236400D01*
X112590641Y-47236400D01*
X112017152Y-47350474D01*
X111702872Y-47560470D01*
X111062401Y-46919999D01*
X110815839Y-46755252D01*
X110525000Y-46697400D01*
X107085500Y-46697400D01*
X106794660Y-46755252D01*
X106548099Y-46919999D01*
X105911434Y-47556664D01*
X105602848Y-47350474D01*
X105029359Y-47236400D01*
X104970641Y-47236400D01*
X104397152Y-47350474D01*
X103910971Y-47675330D01*
X103586115Y-48161511D01*
X103472041Y-48735000D01*
X103586115Y-49308489D01*
X103653444Y-49409254D01*
X103444899Y-49548599D01*
X103233199Y-49760299D01*
X103068452Y-50006861D01*
X103010600Y-50297700D01*
X103010600Y-80216700D01*
X103068452Y-80507539D01*
X103233199Y-80754101D01*
X111616967Y-89137870D01*
X111530971Y-89195330D01*
X111350008Y-89466161D01*
X110968490Y-89048179D01*
X110439027Y-88800032D01*
X110207000Y-88920531D01*
X110207000Y-90128000D01*
X110227000Y-90128000D01*
X110227000Y-90382000D01*
X110207000Y-90382000D01*
X110207000Y-90402000D01*
X109953000Y-90402000D01*
X109953000Y-90382000D01*
X109933000Y-90382000D01*
X109933000Y-90128000D01*
X109953000Y-90128000D01*
X109953000Y-88920531D01*
X109720973Y-88800032D01*
X109191510Y-89048179D01*
X108809992Y-89466161D01*
X108629029Y-89195330D01*
X108142848Y-88870474D01*
X107569359Y-88756400D01*
X107510641Y-88756400D01*
X106937152Y-88870474D01*
X106450971Y-89195330D01*
X106270000Y-89466172D01*
X106089029Y-89195330D01*
X105602848Y-88870474D01*
X105029359Y-88756400D01*
X104970641Y-88756400D01*
X104397152Y-88870474D01*
X103910971Y-89195330D01*
X103715000Y-89488621D01*
X103715000Y-82516822D01*
X103764838Y-82396799D01*
X103765162Y-82024833D01*
X103623117Y-81681057D01*
X103360327Y-81417808D01*
X103016799Y-81275162D01*
X102644833Y-81274838D01*
X102301057Y-81416883D01*
X102037808Y-81679673D01*
X101895162Y-82023201D01*
X101894838Y-82395167D01*
X101945000Y-82516569D01*
X101945000Y-91988375D01*
X101944999Y-91988380D01*
X101945000Y-91988385D01*
X101945000Y-91988600D01*
X101978306Y-92156041D01*
X102012283Y-92327072D01*
X102012345Y-92327165D01*
X102012367Y-92327275D01*
X102108988Y-92471879D01*
X102204055Y-92614234D01*
X102204208Y-92614387D01*
X102204210Y-92614390D01*
X102204213Y-92614392D01*
X103010055Y-93420634D01*
X103010147Y-93420695D01*
X103010210Y-93420790D01*
X103155618Y-93517948D01*
X103297123Y-93612549D01*
X103297232Y-93612571D01*
X103297325Y-93612633D01*
X103464652Y-93645917D01*
X103488960Y-93650758D01*
X103488960Y-93658600D01*
X103533238Y-93893917D01*
X103672310Y-94110041D01*
X103884510Y-94255031D01*
X104136400Y-94306040D01*
X105863600Y-94306040D01*
X106098917Y-94261762D01*
X106315041Y-94122690D01*
X106460031Y-93910490D01*
X106468908Y-93866655D01*
X106937152Y-94179526D01*
X107510641Y-94293600D01*
X107569359Y-94293600D01*
X108142848Y-94179526D01*
X108629029Y-93854670D01*
X108810000Y-93583828D01*
X108990971Y-93854670D01*
X109477152Y-94179526D01*
X110050641Y-94293600D01*
X110109359Y-94293600D01*
X110682848Y-94179526D01*
X111169029Y-93854670D01*
X111350000Y-93583828D01*
X111530971Y-93854670D01*
X112017152Y-94179526D01*
X112590641Y-94293600D01*
X112649359Y-94293600D01*
X112978356Y-94228158D01*
X113740799Y-94990601D01*
X113987361Y-95155348D01*
X113994150Y-95156698D01*
X95710000Y-95083953D01*
X95710000Y-50528172D01*
X97332538Y-50528172D01*
X97737709Y-51508761D01*
X98487293Y-52259655D01*
X99467173Y-52666536D01*
X100528172Y-52667462D01*
X101508761Y-52262291D01*
X102259655Y-51512707D01*
X102666536Y-50532827D01*
X102667462Y-49471828D01*
X102262291Y-48491239D01*
X101512707Y-47740345D01*
X100532827Y-47333464D01*
X99471828Y-47332538D01*
X98491239Y-47737709D01*
X97740345Y-48487293D01*
X97333464Y-49467173D01*
X97332538Y-50528172D01*
X95710000Y-50528172D01*
X95710000Y-48466007D01*
X95716662Y-45710000D01*
X160812555Y-45710000D01*
X160804233Y-49173591D01*
X160804233Y-49173591D01*
G37*
X160804233Y-49173591D02*
X160522291Y-48491239D01*
X159772707Y-47740345D01*
X158792827Y-47333464D01*
X157731828Y-47332538D01*
X156751239Y-47737709D01*
X156000345Y-48487293D01*
X155593464Y-49467173D01*
X155592538Y-50528172D01*
X155997709Y-51508761D01*
X156747293Y-52259655D01*
X157727173Y-52666536D01*
X158788172Y-52667462D01*
X159768761Y-52262291D01*
X160519655Y-51512707D01*
X160800237Y-50836990D01*
X160693306Y-95342495D01*
X127905306Y-95212045D01*
X128190339Y-95155348D01*
X128436901Y-94990601D01*
X129467945Y-93959557D01*
X129797152Y-94179526D01*
X130370641Y-94293600D01*
X130429359Y-94293600D01*
X131002848Y-94179526D01*
X131317128Y-93969530D01*
X132335899Y-94988301D01*
X132582461Y-95153048D01*
X132873300Y-95210900D01*
X153305700Y-95210900D01*
X153596539Y-95153048D01*
X153843101Y-94988301D01*
X155017101Y-93814301D01*
X155181848Y-93567739D01*
X155239700Y-93276900D01*
X155239700Y-82912000D01*
X155181848Y-82621161D01*
X155181848Y-82621160D01*
X155017101Y-82374599D01*
X141771116Y-69128614D01*
X141824698Y-69092811D01*
X142080000Y-68710725D01*
X142335302Y-69092811D01*
X142800849Y-69403880D01*
X143350000Y-69513113D01*
X143899151Y-69403880D01*
X144364698Y-69092811D01*
X144620000Y-68710725D01*
X144875302Y-69092811D01*
X145340849Y-69403880D01*
X145890000Y-69513113D01*
X146439151Y-69403880D01*
X146904698Y-69092811D01*
X147215767Y-68627264D01*
X147325000Y-68078113D01*
X147325000Y-68021887D01*
X147215767Y-67472736D01*
X146904698Y-67007189D01*
X146439151Y-66696120D01*
X145890000Y-66586887D01*
X145340849Y-66696120D01*
X144875302Y-67007189D01*
X144620000Y-67389275D01*
X144364698Y-67007189D01*
X143899151Y-66696120D01*
X143350000Y-66586887D01*
X142800849Y-66696120D01*
X142335302Y-67007189D01*
X142080000Y-67389275D01*
X141824698Y-67007189D01*
X141359151Y-66696120D01*
X140810000Y-66586887D01*
X140260849Y-66696120D01*
X139795302Y-67007189D01*
X139581576Y-67327053D01*
X139485679Y-67307978D01*
X139284698Y-67007189D01*
X138819151Y-66696120D01*
X138270000Y-66586887D01*
X137720849Y-66696120D01*
X137255302Y-67007189D01*
X137000000Y-67389275D01*
X136744698Y-67007189D01*
X136279151Y-66696120D01*
X135730000Y-66586887D01*
X135180849Y-66696120D01*
X134715302Y-67007189D01*
X134501576Y-67327053D01*
X134405679Y-67307978D01*
X134204698Y-67007189D01*
X133739151Y-66696120D01*
X133190000Y-66586887D01*
X132680000Y-66688332D01*
X132680000Y-61791668D01*
X133190000Y-61893113D01*
X133739151Y-61783880D01*
X134204698Y-61472811D01*
X134460000Y-61090725D01*
X134715302Y-61472811D01*
X135180849Y-61783880D01*
X135730000Y-61893113D01*
X136279151Y-61783880D01*
X136744698Y-61472811D01*
X137000000Y-61090725D01*
X137255302Y-61472811D01*
X137720849Y-61783880D01*
X138270000Y-61893113D01*
X138819151Y-61783880D01*
X139284698Y-61472811D01*
X139540000Y-61090725D01*
X139795302Y-61472811D01*
X140260849Y-61783880D01*
X140810000Y-61893113D01*
X141359151Y-61783880D01*
X141824698Y-61472811D01*
X142080000Y-61090725D01*
X142335302Y-61472811D01*
X142800849Y-61783880D01*
X143350000Y-61893113D01*
X143899151Y-61783880D01*
X144364698Y-61472811D01*
X144620000Y-61090725D01*
X144875302Y-61472811D01*
X145340849Y-61783880D01*
X145890000Y-61893113D01*
X146439151Y-61783880D01*
X146904698Y-61472811D01*
X147215767Y-61007264D01*
X147325000Y-60458113D01*
X147325000Y-60401887D01*
X147215767Y-59852736D01*
X146904698Y-59387189D01*
X146439151Y-59076120D01*
X145890000Y-58966887D01*
X145340849Y-59076120D01*
X144875302Y-59387189D01*
X144620000Y-59769275D01*
X144364698Y-59387189D01*
X143899151Y-59076120D01*
X143350000Y-58966887D01*
X142800849Y-59076120D01*
X142335302Y-59387189D01*
X142080000Y-59769275D01*
X141824698Y-59387189D01*
X141359151Y-59076120D01*
X140810000Y-58966887D01*
X140260849Y-59076120D01*
X139795302Y-59387189D01*
X139540000Y-59769275D01*
X139284698Y-59387189D01*
X138819151Y-59076120D01*
X138270000Y-58966887D01*
X137720849Y-59076120D01*
X137255302Y-59387189D01*
X137000000Y-59769275D01*
X136744698Y-59387189D01*
X136279151Y-59076120D01*
X135730000Y-58966887D01*
X135180849Y-59076120D01*
X134715302Y-59387189D01*
X134460000Y-59769275D01*
X134204698Y-59387189D01*
X133739151Y-59076120D01*
X133190000Y-58966887D01*
X132680000Y-59068332D01*
X132680000Y-53798702D01*
X133477401Y-53001301D01*
X133642148Y-52754739D01*
X133679211Y-52568411D01*
X134029029Y-52334670D01*
X134209992Y-52063839D01*
X134591510Y-52481821D01*
X135120973Y-52729968D01*
X135353000Y-52609469D01*
X135353000Y-51402000D01*
X135333000Y-51402000D01*
X135333000Y-51148000D01*
X135353000Y-51148000D01*
X135353000Y-51128000D01*
X135607000Y-51128000D01*
X135607000Y-51148000D01*
X135627000Y-51148000D01*
X135627000Y-51402000D01*
X135607000Y-51402000D01*
X135607000Y-52609469D01*
X135839027Y-52729968D01*
X136368490Y-52481821D01*
X136750008Y-52063839D01*
X136930971Y-52334670D01*
X137417152Y-52659526D01*
X137990641Y-52773600D01*
X138049359Y-52773600D01*
X138622848Y-52659526D01*
X139109029Y-52334670D01*
X139290000Y-52063828D01*
X139470971Y-52334670D01*
X139957152Y-52659526D01*
X140530641Y-52773600D01*
X140589359Y-52773600D01*
X141162848Y-52659526D01*
X141649029Y-52334670D01*
X141830000Y-52063828D01*
X142010971Y-52334670D01*
X142497152Y-52659526D01*
X143070641Y-52773600D01*
X143129359Y-52773600D01*
X143702848Y-52659526D01*
X144189029Y-52334670D01*
X144370000Y-52063828D01*
X144550971Y-52334670D01*
X145037152Y-52659526D01*
X145610641Y-52773600D01*
X145669359Y-52773600D01*
X146242848Y-52659526D01*
X146729029Y-52334670D01*
X146910000Y-52063828D01*
X147090971Y-52334670D01*
X147577152Y-52659526D01*
X148150641Y-52773600D01*
X148209359Y-52773600D01*
X148782848Y-52659526D01*
X149269029Y-52334670D01*
X149450000Y-52063828D01*
X149630971Y-52334670D01*
X150117152Y-52659526D01*
X150690641Y-52773600D01*
X150749359Y-52773600D01*
X151322848Y-52659526D01*
X151809029Y-52334670D01*
X151989992Y-52063839D01*
X152371510Y-52481821D01*
X152900973Y-52729968D01*
X153133000Y-52609469D01*
X153133000Y-51402000D01*
X153387000Y-51402000D01*
X153387000Y-52609469D01*
X153619027Y-52729968D01*
X154148490Y-52481821D01*
X154542688Y-52049947D01*
X154714958Y-51634026D01*
X154593817Y-51402000D01*
X153387000Y-51402000D01*
X153133000Y-51402000D01*
X153113000Y-51402000D01*
X153113000Y-51148000D01*
X153133000Y-51148000D01*
X153133000Y-51128000D01*
X153387000Y-51128000D01*
X153387000Y-51148000D01*
X154593817Y-51148000D01*
X154714958Y-50915974D01*
X154542688Y-50500053D01*
X154148490Y-50068179D01*
X154025772Y-50010664D01*
X154349029Y-49794670D01*
X154673885Y-49308489D01*
X154787959Y-48735000D01*
X154673885Y-48161511D01*
X154349029Y-47675330D01*
X153862848Y-47350474D01*
X153289359Y-47236400D01*
X153230641Y-47236400D01*
X152657152Y-47350474D01*
X152170971Y-47675330D01*
X151990000Y-47946172D01*
X151809029Y-47675330D01*
X151322848Y-47350474D01*
X150749359Y-47236400D01*
X150690641Y-47236400D01*
X150117152Y-47350474D01*
X149630971Y-47675330D01*
X149450000Y-47946172D01*
X149269029Y-47675330D01*
X148782848Y-47350474D01*
X148209359Y-47236400D01*
X148150641Y-47236400D01*
X147577152Y-47350474D01*
X147090971Y-47675330D01*
X146910008Y-47946161D01*
X146528490Y-47528179D01*
X145999027Y-47280032D01*
X145767000Y-47400531D01*
X145767000Y-48608000D01*
X145787000Y-48608000D01*
X145787000Y-48862000D01*
X145767000Y-48862000D01*
X145767000Y-48882000D01*
X145513000Y-48882000D01*
X145513000Y-48862000D01*
X145493000Y-48862000D01*
X145493000Y-48608000D01*
X145513000Y-48608000D01*
X145513000Y-47400531D01*
X145280973Y-47280032D01*
X144751510Y-47528179D01*
X144369992Y-47946161D01*
X144189029Y-47675330D01*
X143702848Y-47350474D01*
X143129359Y-47236400D01*
X143070641Y-47236400D01*
X142497152Y-47350474D01*
X142010971Y-47675330D01*
X141830008Y-47946161D01*
X141448490Y-47528179D01*
X140919027Y-47280032D01*
X140687000Y-47400531D01*
X140687000Y-48608000D01*
X140707000Y-48608000D01*
X140707000Y-48862000D01*
X140687000Y-48862000D01*
X140687000Y-48882000D01*
X140433000Y-48882000D01*
X140433000Y-48862000D01*
X140413000Y-48862000D01*
X140413000Y-48608000D01*
X140433000Y-48608000D01*
X140433000Y-47400531D01*
X140200973Y-47280032D01*
X139671510Y-47528179D01*
X139289992Y-47946161D01*
X139109029Y-47675330D01*
X138622848Y-47350474D01*
X138049359Y-47236400D01*
X137990641Y-47236400D01*
X137417152Y-47350474D01*
X136930971Y-47675330D01*
X136750000Y-47946172D01*
X136569029Y-47675330D01*
X136082848Y-47350474D01*
X135509359Y-47236400D01*
X135450641Y-47236400D01*
X134877152Y-47350474D01*
X134390971Y-47675330D01*
X134210000Y-47946172D01*
X134029029Y-47675330D01*
X133542848Y-47350474D01*
X132969359Y-47236400D01*
X132910641Y-47236400D01*
X132337152Y-47350474D01*
X131850971Y-47675330D01*
X131670000Y-47946172D01*
X131489029Y-47675330D01*
X131002848Y-47350474D01*
X130429359Y-47236400D01*
X130370641Y-47236400D01*
X129797152Y-47350474D01*
X129310971Y-47675330D01*
X129130008Y-47946161D01*
X128748490Y-47528179D01*
X128219027Y-47280032D01*
X127987000Y-47400531D01*
X127987000Y-48608000D01*
X128007000Y-48608000D01*
X128007000Y-48862000D01*
X127987000Y-48862000D01*
X127987000Y-48882000D01*
X127733000Y-48882000D01*
X127733000Y-48862000D01*
X127713000Y-48862000D01*
X127713000Y-48608000D01*
X127733000Y-48608000D01*
X127733000Y-47400531D01*
X127500973Y-47280032D01*
X126971510Y-47528179D01*
X126589992Y-47946161D01*
X126409029Y-47675330D01*
X125922848Y-47350474D01*
X125349359Y-47236400D01*
X125290641Y-47236400D01*
X124717152Y-47350474D01*
X124230971Y-47675330D01*
X124050000Y-47946172D01*
X123869029Y-47675330D01*
X123382848Y-47350474D01*
X122809359Y-47236400D01*
X122750641Y-47236400D01*
X122177152Y-47350474D01*
X121690971Y-47675330D01*
X121510008Y-47946161D01*
X121128490Y-47528179D01*
X120599027Y-47280032D01*
X120367000Y-47400531D01*
X120367000Y-48608000D01*
X120387000Y-48608000D01*
X120387000Y-48862000D01*
X120367000Y-48862000D01*
X120367000Y-48882000D01*
X120113000Y-48882000D01*
X120113000Y-48862000D01*
X120093000Y-48862000D01*
X120093000Y-48608000D01*
X120113000Y-48608000D01*
X120113000Y-47400531D01*
X119880973Y-47280032D01*
X119351510Y-47528179D01*
X118969992Y-47946161D01*
X118789029Y-47675330D01*
X118302848Y-47350474D01*
X117729359Y-47236400D01*
X117670641Y-47236400D01*
X117097152Y-47350474D01*
X116610971Y-47675330D01*
X116430000Y-47946172D01*
X116249029Y-47675330D01*
X115762848Y-47350474D01*
X115189359Y-47236400D01*
X115130641Y-47236400D01*
X114557152Y-47350474D01*
X114070971Y-47675330D01*
X113890000Y-47946172D01*
X113709029Y-47675330D01*
X113222848Y-47350474D01*
X112649359Y-47236400D01*
X112590641Y-47236400D01*
X112017152Y-47350474D01*
X111702872Y-47560470D01*
X111062401Y-46919999D01*
X110815839Y-46755252D01*
X110525000Y-46697400D01*
X107085500Y-46697400D01*
X106794660Y-46755252D01*
X106548099Y-46919999D01*
X105911434Y-47556664D01*
X105602848Y-47350474D01*
X105029359Y-47236400D01*
X104970641Y-47236400D01*
X104397152Y-47350474D01*
X103910971Y-47675330D01*
X103586115Y-48161511D01*
X103472041Y-48735000D01*
X103586115Y-49308489D01*
X103653444Y-49409254D01*
X103444899Y-49548599D01*
X103233199Y-49760299D01*
X103068452Y-50006861D01*
X103010600Y-50297700D01*
X103010600Y-80216700D01*
X103068452Y-80507539D01*
X103233199Y-80754101D01*
X111616967Y-89137870D01*
X111530971Y-89195330D01*
X111350008Y-89466161D01*
X110968490Y-89048179D01*
X110439027Y-88800032D01*
X110207000Y-88920531D01*
X110207000Y-90128000D01*
X110227000Y-90128000D01*
X110227000Y-90382000D01*
X110207000Y-90382000D01*
X110207000Y-90402000D01*
X109953000Y-90402000D01*
X109953000Y-90382000D01*
X109933000Y-90382000D01*
X109933000Y-90128000D01*
X109953000Y-90128000D01*
X109953000Y-88920531D01*
X109720973Y-88800032D01*
X109191510Y-89048179D01*
X108809992Y-89466161D01*
X108629029Y-89195330D01*
X108142848Y-88870474D01*
X107569359Y-88756400D01*
X107510641Y-88756400D01*
X106937152Y-88870474D01*
X106450971Y-89195330D01*
X106270000Y-89466172D01*
X106089029Y-89195330D01*
X105602848Y-88870474D01*
X105029359Y-88756400D01*
X104970641Y-88756400D01*
X104397152Y-88870474D01*
X103910971Y-89195330D01*
X103715000Y-89488621D01*
X103715000Y-82516822D01*
X103764838Y-82396799D01*
X103765162Y-82024833D01*
X103623117Y-81681057D01*
X103360327Y-81417808D01*
X103016799Y-81275162D01*
X102644833Y-81274838D01*
X102301057Y-81416883D01*
X102037808Y-81679673D01*
X101895162Y-82023201D01*
X101894838Y-82395167D01*
X101945000Y-82516569D01*
X101945000Y-91988375D01*
X101944999Y-91988380D01*
X101945000Y-91988385D01*
X101945000Y-91988600D01*
X101978306Y-92156041D01*
X102012283Y-92327072D01*
X102012345Y-92327165D01*
X102012367Y-92327275D01*
X102108988Y-92471879D01*
X102204055Y-92614234D01*
X102204208Y-92614387D01*
X102204210Y-92614390D01*
X102204213Y-92614392D01*
X103010055Y-93420634D01*
X103010147Y-93420695D01*
X103010210Y-93420790D01*
X103155618Y-93517948D01*
X103297123Y-93612549D01*
X103297232Y-93612571D01*
X103297325Y-93612633D01*
X103464652Y-93645917D01*
X103488960Y-93650758D01*
X103488960Y-93658600D01*
X103533238Y-93893917D01*
X103672310Y-94110041D01*
X103884510Y-94255031D01*
X104136400Y-94306040D01*
X105863600Y-94306040D01*
X106098917Y-94261762D01*
X106315041Y-94122690D01*
X106460031Y-93910490D01*
X106468908Y-93866655D01*
X106937152Y-94179526D01*
X107510641Y-94293600D01*
X107569359Y-94293600D01*
X108142848Y-94179526D01*
X108629029Y-93854670D01*
X108810000Y-93583828D01*
X108990971Y-93854670D01*
X109477152Y-94179526D01*
X110050641Y-94293600D01*
X110109359Y-94293600D01*
X110682848Y-94179526D01*
X111169029Y-93854670D01*
X111350000Y-93583828D01*
X111530971Y-93854670D01*
X112017152Y-94179526D01*
X112590641Y-94293600D01*
X112649359Y-94293600D01*
X112978356Y-94228158D01*
X113740799Y-94990601D01*
X113987361Y-95155348D01*
X113994150Y-95156698D01*
X95710000Y-95083953D01*
X95710000Y-50528172D01*
X97332538Y-50528172D01*
X97737709Y-51508761D01*
X98487293Y-52259655D01*
X99467173Y-52666536D01*
X100528172Y-52667462D01*
X101508761Y-52262291D01*
X102259655Y-51512707D01*
X102666536Y-50532827D01*
X102667462Y-49471828D01*
X102262291Y-48491239D01*
X101512707Y-47740345D01*
X100532827Y-47333464D01*
X99471828Y-47332538D01*
X98491239Y-47737709D01*
X97740345Y-48487293D01*
X97333464Y-49467173D01*
X97332538Y-50528172D01*
X95710000Y-50528172D01*
X95710000Y-48466007D01*
X95716662Y-45710000D01*
X160812555Y-45710000D01*
X160804233Y-49173591D01*
G36*
X135607000Y-92668000D02*
X135627000Y-92668000D01*
X135627000Y-92922000D01*
X135607000Y-92922000D01*
X135607000Y-92942000D01*
X135353000Y-92942000D01*
X135353000Y-92922000D01*
X135333000Y-92922000D01*
X135333000Y-92668000D01*
X135353000Y-92668000D01*
X135353000Y-92648000D01*
X135607000Y-92648000D01*
X135607000Y-92668000D01*
X135607000Y-92668000D01*
G37*
X135607000Y-92668000D02*
X135627000Y-92668000D01*
X135627000Y-92922000D01*
X135607000Y-92922000D01*
X135607000Y-92942000D01*
X135353000Y-92942000D01*
X135353000Y-92922000D01*
X135333000Y-92922000D01*
X135333000Y-92668000D01*
X135353000Y-92668000D01*
X135353000Y-92648000D01*
X135607000Y-92648000D01*
X135607000Y-92668000D01*
G36*
X153387000Y-92668000D02*
X153407000Y-92668000D01*
X153407000Y-92922000D01*
X153387000Y-92922000D01*
X153387000Y-92942000D01*
X153133000Y-92942000D01*
X153133000Y-92922000D01*
X153113000Y-92922000D01*
X153113000Y-92668000D01*
X153133000Y-92668000D01*
X153133000Y-92648000D01*
X153387000Y-92648000D01*
X153387000Y-92668000D01*
X153387000Y-92668000D01*
G37*
X153387000Y-92668000D02*
X153407000Y-92668000D01*
X153407000Y-92922000D01*
X153387000Y-92922000D01*
X153387000Y-92942000D01*
X153133000Y-92942000D01*
X153133000Y-92922000D01*
X153113000Y-92922000D01*
X153113000Y-92668000D01*
X153133000Y-92668000D01*
X153133000Y-92648000D01*
X153387000Y-92648000D01*
X153387000Y-92668000D01*
G36*
X115287000Y-92668000D02*
X115307000Y-92668000D01*
X115307000Y-92922000D01*
X115287000Y-92922000D01*
X115287000Y-92942000D01*
X115033000Y-92942000D01*
X115033000Y-92922000D01*
X115013000Y-92922000D01*
X115013000Y-92668000D01*
X115033000Y-92668000D01*
X115033000Y-92648000D01*
X115287000Y-92648000D01*
X115287000Y-92668000D01*
X115287000Y-92668000D01*
G37*
X115287000Y-92668000D02*
X115307000Y-92668000D01*
X115307000Y-92922000D01*
X115287000Y-92922000D01*
X115287000Y-92942000D01*
X115033000Y-92942000D01*
X115033000Y-92922000D01*
X115013000Y-92922000D01*
X115013000Y-92668000D01*
X115033000Y-92668000D01*
X115033000Y-92648000D01*
X115287000Y-92648000D01*
X115287000Y-92668000D01*
G36*
X145235849Y-84783880D02*
X145785000Y-84893113D01*
X146157000Y-84819118D01*
X146157000Y-84934298D01*
X142562599Y-88528699D01*
X142397852Y-88775261D01*
X142360789Y-88961589D01*
X142010971Y-89195330D01*
X141830008Y-89466161D01*
X141448490Y-89048179D01*
X140919027Y-88800032D01*
X140687000Y-88920531D01*
X140687000Y-90128000D01*
X140707000Y-90128000D01*
X140707000Y-90382000D01*
X140687000Y-90382000D01*
X140687000Y-90402000D01*
X140433000Y-90402000D01*
X140433000Y-90382000D01*
X140413000Y-90382000D01*
X140413000Y-90128000D01*
X140433000Y-90128000D01*
X140433000Y-88920531D01*
X140200973Y-88800032D01*
X139671510Y-89048179D01*
X139289992Y-89466161D01*
X139109029Y-89195330D01*
X138724624Y-88938478D01*
X142347802Y-85315300D01*
X143815800Y-85315300D01*
X144106639Y-85257448D01*
X144353201Y-85092701D01*
X144891865Y-84554037D01*
X145235849Y-84783880D01*
X145235849Y-84783880D01*
G37*
X145235849Y-84783880D02*
X145785000Y-84893113D01*
X146157000Y-84819118D01*
X146157000Y-84934298D01*
X142562599Y-88528699D01*
X142397852Y-88775261D01*
X142360789Y-88961589D01*
X142010971Y-89195330D01*
X141830008Y-89466161D01*
X141448490Y-89048179D01*
X140919027Y-88800032D01*
X140687000Y-88920531D01*
X140687000Y-90128000D01*
X140707000Y-90128000D01*
X140707000Y-90382000D01*
X140687000Y-90382000D01*
X140687000Y-90402000D01*
X140433000Y-90402000D01*
X140433000Y-90382000D01*
X140413000Y-90382000D01*
X140413000Y-90128000D01*
X140433000Y-90128000D01*
X140433000Y-88920531D01*
X140200973Y-88800032D01*
X139671510Y-89048179D01*
X139289992Y-89466161D01*
X139109029Y-89195330D01*
X138724624Y-88938478D01*
X142347802Y-85315300D01*
X143815800Y-85315300D01*
X144106639Y-85257448D01*
X144353201Y-85092701D01*
X144891865Y-84554037D01*
X145235849Y-84783880D01*
G36*
X149960000Y-84725102D02*
X149960000Y-88975480D01*
X149630971Y-89195330D01*
X149450000Y-89466172D01*
X149269029Y-89195330D01*
X148782848Y-88870474D01*
X148209359Y-88756400D01*
X148150641Y-88756400D01*
X147577152Y-88870474D01*
X147090971Y-89195330D01*
X146910008Y-89466161D01*
X146528490Y-89048179D01*
X145999027Y-88800032D01*
X145767000Y-88920531D01*
X145767000Y-90128000D01*
X145787000Y-90128000D01*
X145787000Y-90382000D01*
X145767000Y-90382000D01*
X145767000Y-90402000D01*
X145513000Y-90402000D01*
X145513000Y-90382000D01*
X145493000Y-90382000D01*
X145493000Y-90128000D01*
X145513000Y-90128000D01*
X145513000Y-88920531D01*
X145280973Y-88800032D01*
X144751510Y-89048179D01*
X144369992Y-89466161D01*
X144189029Y-89195330D01*
X144103033Y-89137869D01*
X147454401Y-85786501D01*
X147619148Y-85539940D01*
X147677000Y-85249100D01*
X147677000Y-82442102D01*
X149960000Y-84725102D01*
X149960000Y-84725102D01*
G37*
X149960000Y-84725102D02*
X149960000Y-88975480D01*
X149630971Y-89195330D01*
X149450000Y-89466172D01*
X149269029Y-89195330D01*
X148782848Y-88870474D01*
X148209359Y-88756400D01*
X148150641Y-88756400D01*
X147577152Y-88870474D01*
X147090971Y-89195330D01*
X146910008Y-89466161D01*
X146528490Y-89048179D01*
X145999027Y-88800032D01*
X145767000Y-88920531D01*
X145767000Y-90128000D01*
X145787000Y-90128000D01*
X145787000Y-90382000D01*
X145767000Y-90382000D01*
X145767000Y-90402000D01*
X145513000Y-90402000D01*
X145513000Y-90382000D01*
X145493000Y-90382000D01*
X145493000Y-90128000D01*
X145513000Y-90128000D01*
X145513000Y-88920531D01*
X145280973Y-88800032D01*
X144751510Y-89048179D01*
X144369992Y-89466161D01*
X144189029Y-89195330D01*
X144103033Y-89137869D01*
X147454401Y-85786501D01*
X147619148Y-85539940D01*
X147677000Y-85249100D01*
X147677000Y-82442102D01*
X149960000Y-84725102D01*
G36*
X107249161Y-53166048D02*
X107540000Y-53223900D01*
X108254398Y-53223900D01*
X114408721Y-59378223D01*
X114395302Y-59387189D01*
X114140000Y-59769275D01*
X113884698Y-59387189D01*
X113419151Y-59076120D01*
X112870000Y-58966887D01*
X112320849Y-59076120D01*
X111855302Y-59387189D01*
X111544233Y-59852736D01*
X111435000Y-60401887D01*
X111435000Y-60458113D01*
X111544233Y-61007264D01*
X111855302Y-61472811D01*
X112320849Y-61783880D01*
X112870000Y-61893113D01*
X113419151Y-61783880D01*
X113884698Y-61472811D01*
X114140000Y-61090725D01*
X114395302Y-61472811D01*
X114408721Y-61481777D01*
X113747299Y-62143199D01*
X113582552Y-62389761D01*
X113524700Y-62680600D01*
X113524700Y-66766646D01*
X113419151Y-66696120D01*
X112870000Y-66586887D01*
X112320849Y-66696120D01*
X111855302Y-67007189D01*
X111544233Y-67472736D01*
X111435000Y-68021887D01*
X111435000Y-68078113D01*
X111544233Y-68627264D01*
X111855302Y-69092811D01*
X112320849Y-69403880D01*
X112870000Y-69513113D01*
X113419151Y-69403880D01*
X113524700Y-69333354D01*
X113524700Y-73664400D01*
X113582552Y-73955239D01*
X113747299Y-74201801D01*
X114303721Y-74758223D01*
X114290302Y-74767189D01*
X114035000Y-75149275D01*
X113779698Y-74767189D01*
X113314151Y-74456120D01*
X112765000Y-74346887D01*
X112215849Y-74456120D01*
X111750302Y-74767189D01*
X111439233Y-75232736D01*
X111330000Y-75781887D01*
X111330000Y-75838113D01*
X111439233Y-76387264D01*
X111750302Y-76852811D01*
X112215849Y-77163880D01*
X112765000Y-77273113D01*
X113314151Y-77163880D01*
X113779698Y-76852811D01*
X114035000Y-76470725D01*
X114290302Y-76852811D01*
X114755849Y-77163880D01*
X115305000Y-77273113D01*
X115854151Y-77163880D01*
X116319698Y-76852811D01*
X116575000Y-76470725D01*
X116830302Y-76852811D01*
X117295849Y-77163880D01*
X117845000Y-77273113D01*
X118394151Y-77163880D01*
X118859698Y-76852811D01*
X119115000Y-76470725D01*
X119370302Y-76852811D01*
X119835849Y-77163880D01*
X120385000Y-77273113D01*
X120934151Y-77163880D01*
X121039700Y-77093354D01*
X121039700Y-81179400D01*
X121097552Y-81470239D01*
X121262299Y-81716801D01*
X121923721Y-82378223D01*
X121910302Y-82387189D01*
X121655000Y-82769275D01*
X121399698Y-82387189D01*
X120934151Y-82076120D01*
X120385000Y-81966887D01*
X119835849Y-82076120D01*
X119370302Y-82387189D01*
X119100014Y-82791703D01*
X118997389Y-82574866D01*
X118582423Y-82198959D01*
X118194039Y-82038096D01*
X117972000Y-82160085D01*
X117972000Y-83303000D01*
X117992000Y-83303000D01*
X117992000Y-83557000D01*
X117972000Y-83557000D01*
X117972000Y-84699915D01*
X118194039Y-84821904D01*
X118582423Y-84661041D01*
X118997389Y-84285134D01*
X119100014Y-84068297D01*
X119370302Y-84472811D01*
X119835849Y-84783880D01*
X120385000Y-84893113D01*
X120934151Y-84783880D01*
X121399698Y-84472811D01*
X121655000Y-84090725D01*
X121910302Y-84472811D01*
X122375849Y-84783880D01*
X122925000Y-84893113D01*
X123474151Y-84783880D01*
X123522000Y-84751908D01*
X123522000Y-86454998D01*
X122242599Y-87734399D01*
X122077852Y-87980961D01*
X122020000Y-88271800D01*
X122020000Y-88975480D01*
X121690971Y-89195330D01*
X121510008Y-89466161D01*
X121128490Y-89048179D01*
X120599027Y-88800032D01*
X120367000Y-88920531D01*
X120367000Y-90128000D01*
X120387000Y-90128000D01*
X120387000Y-90382000D01*
X120367000Y-90382000D01*
X120367000Y-90402000D01*
X120113000Y-90402000D01*
X120113000Y-90382000D01*
X120093000Y-90382000D01*
X120093000Y-90128000D01*
X120113000Y-90128000D01*
X120113000Y-88920531D01*
X119880973Y-88800032D01*
X119351510Y-89048179D01*
X118969992Y-89466161D01*
X118789029Y-89195330D01*
X118302848Y-88870474D01*
X117729359Y-88756400D01*
X117670641Y-88756400D01*
X117097152Y-88870474D01*
X116610971Y-89195330D01*
X116430000Y-89466172D01*
X116249029Y-89195330D01*
X115899211Y-88961589D01*
X115862148Y-88775261D01*
X115862148Y-88775260D01*
X115697401Y-88528699D01*
X110947743Y-83779041D01*
X111373086Y-83779041D01*
X111612611Y-84285134D01*
X112027577Y-84661041D01*
X112415961Y-84821904D01*
X112638000Y-84699915D01*
X112638000Y-83557000D01*
X112892000Y-83557000D01*
X112892000Y-84699915D01*
X113114039Y-84821904D01*
X113502423Y-84661041D01*
X113917389Y-84285134D01*
X114035000Y-84036633D01*
X114152611Y-84285134D01*
X114567577Y-84661041D01*
X114955961Y-84821904D01*
X115178000Y-84699915D01*
X115178000Y-83557000D01*
X115432000Y-83557000D01*
X115432000Y-84699915D01*
X115654039Y-84821904D01*
X116042423Y-84661041D01*
X116457389Y-84285134D01*
X116575000Y-84036633D01*
X116692611Y-84285134D01*
X117107577Y-84661041D01*
X117495961Y-84821904D01*
X117718000Y-84699915D01*
X117718000Y-83557000D01*
X115432000Y-83557000D01*
X115178000Y-83557000D01*
X112892000Y-83557000D01*
X112638000Y-83557000D01*
X111494371Y-83557000D01*
X111373086Y-83779041D01*
X110947743Y-83779041D01*
X110249661Y-83080959D01*
X111373086Y-83080959D01*
X111494371Y-83303000D01*
X112638000Y-83303000D01*
X112638000Y-82160085D01*
X112892000Y-82160085D01*
X112892000Y-83303000D01*
X115178000Y-83303000D01*
X115178000Y-82160085D01*
X115432000Y-82160085D01*
X115432000Y-83303000D01*
X117718000Y-83303000D01*
X117718000Y-82160085D01*
X117495961Y-82038096D01*
X117107577Y-82198959D01*
X116692611Y-82574866D01*
X116575000Y-82823367D01*
X116457389Y-82574866D01*
X116042423Y-82198959D01*
X115654039Y-82038096D01*
X115432000Y-82160085D01*
X115178000Y-82160085D01*
X114955961Y-82038096D01*
X114567577Y-82198959D01*
X114152611Y-82574866D01*
X114035000Y-82823367D01*
X113917389Y-82574866D01*
X113502423Y-82198959D01*
X113114039Y-82038096D01*
X112892000Y-82160085D01*
X112638000Y-82160085D01*
X112415961Y-82038096D01*
X112027577Y-82198959D01*
X111612611Y-82574866D01*
X111373086Y-83080959D01*
X110249661Y-83080959D01*
X107061600Y-79892898D01*
X107061600Y-53040724D01*
X107249161Y-53166048D01*
X107249161Y-53166048D01*
G37*
X107249161Y-53166048D02*
X107540000Y-53223900D01*
X108254398Y-53223900D01*
X114408721Y-59378223D01*
X114395302Y-59387189D01*
X114140000Y-59769275D01*
X113884698Y-59387189D01*
X113419151Y-59076120D01*
X112870000Y-58966887D01*
X112320849Y-59076120D01*
X111855302Y-59387189D01*
X111544233Y-59852736D01*
X111435000Y-60401887D01*
X111435000Y-60458113D01*
X111544233Y-61007264D01*
X111855302Y-61472811D01*
X112320849Y-61783880D01*
X112870000Y-61893113D01*
X113419151Y-61783880D01*
X113884698Y-61472811D01*
X114140000Y-61090725D01*
X114395302Y-61472811D01*
X114408721Y-61481777D01*
X113747299Y-62143199D01*
X113582552Y-62389761D01*
X113524700Y-62680600D01*
X113524700Y-66766646D01*
X113419151Y-66696120D01*
X112870000Y-66586887D01*
X112320849Y-66696120D01*
X111855302Y-67007189D01*
X111544233Y-67472736D01*
X111435000Y-68021887D01*
X111435000Y-68078113D01*
X111544233Y-68627264D01*
X111855302Y-69092811D01*
X112320849Y-69403880D01*
X112870000Y-69513113D01*
X113419151Y-69403880D01*
X113524700Y-69333354D01*
X113524700Y-73664400D01*
X113582552Y-73955239D01*
X113747299Y-74201801D01*
X114303721Y-74758223D01*
X114290302Y-74767189D01*
X114035000Y-75149275D01*
X113779698Y-74767189D01*
X113314151Y-74456120D01*
X112765000Y-74346887D01*
X112215849Y-74456120D01*
X111750302Y-74767189D01*
X111439233Y-75232736D01*
X111330000Y-75781887D01*
X111330000Y-75838113D01*
X111439233Y-76387264D01*
X111750302Y-76852811D01*
X112215849Y-77163880D01*
X112765000Y-77273113D01*
X113314151Y-77163880D01*
X113779698Y-76852811D01*
X114035000Y-76470725D01*
X114290302Y-76852811D01*
X114755849Y-77163880D01*
X115305000Y-77273113D01*
X115854151Y-77163880D01*
X116319698Y-76852811D01*
X116575000Y-76470725D01*
X116830302Y-76852811D01*
X117295849Y-77163880D01*
X117845000Y-77273113D01*
X118394151Y-77163880D01*
X118859698Y-76852811D01*
X119115000Y-76470725D01*
X119370302Y-76852811D01*
X119835849Y-77163880D01*
X120385000Y-77273113D01*
X120934151Y-77163880D01*
X121039700Y-77093354D01*
X121039700Y-81179400D01*
X121097552Y-81470239D01*
X121262299Y-81716801D01*
X121923721Y-82378223D01*
X121910302Y-82387189D01*
X121655000Y-82769275D01*
X121399698Y-82387189D01*
X120934151Y-82076120D01*
X120385000Y-81966887D01*
X119835849Y-82076120D01*
X119370302Y-82387189D01*
X119100014Y-82791703D01*
X118997389Y-82574866D01*
X118582423Y-82198959D01*
X118194039Y-82038096D01*
X117972000Y-82160085D01*
X117972000Y-83303000D01*
X117992000Y-83303000D01*
X117992000Y-83557000D01*
X117972000Y-83557000D01*
X117972000Y-84699915D01*
X118194039Y-84821904D01*
X118582423Y-84661041D01*
X118997389Y-84285134D01*
X119100014Y-84068297D01*
X119370302Y-84472811D01*
X119835849Y-84783880D01*
X120385000Y-84893113D01*
X120934151Y-84783880D01*
X121399698Y-84472811D01*
X121655000Y-84090725D01*
X121910302Y-84472811D01*
X122375849Y-84783880D01*
X122925000Y-84893113D01*
X123474151Y-84783880D01*
X123522000Y-84751908D01*
X123522000Y-86454998D01*
X122242599Y-87734399D01*
X122077852Y-87980961D01*
X122020000Y-88271800D01*
X122020000Y-88975480D01*
X121690971Y-89195330D01*
X121510008Y-89466161D01*
X121128490Y-89048179D01*
X120599027Y-88800032D01*
X120367000Y-88920531D01*
X120367000Y-90128000D01*
X120387000Y-90128000D01*
X120387000Y-90382000D01*
X120367000Y-90382000D01*
X120367000Y-90402000D01*
X120113000Y-90402000D01*
X120113000Y-90382000D01*
X120093000Y-90382000D01*
X120093000Y-90128000D01*
X120113000Y-90128000D01*
X120113000Y-88920531D01*
X119880973Y-88800032D01*
X119351510Y-89048179D01*
X118969992Y-89466161D01*
X118789029Y-89195330D01*
X118302848Y-88870474D01*
X117729359Y-88756400D01*
X117670641Y-88756400D01*
X117097152Y-88870474D01*
X116610971Y-89195330D01*
X116430000Y-89466172D01*
X116249029Y-89195330D01*
X115899211Y-88961589D01*
X115862148Y-88775261D01*
X115862148Y-88775260D01*
X115697401Y-88528699D01*
X110947743Y-83779041D01*
X111373086Y-83779041D01*
X111612611Y-84285134D01*
X112027577Y-84661041D01*
X112415961Y-84821904D01*
X112638000Y-84699915D01*
X112638000Y-83557000D01*
X112892000Y-83557000D01*
X112892000Y-84699915D01*
X113114039Y-84821904D01*
X113502423Y-84661041D01*
X113917389Y-84285134D01*
X114035000Y-84036633D01*
X114152611Y-84285134D01*
X114567577Y-84661041D01*
X114955961Y-84821904D01*
X115178000Y-84699915D01*
X115178000Y-83557000D01*
X115432000Y-83557000D01*
X115432000Y-84699915D01*
X115654039Y-84821904D01*
X116042423Y-84661041D01*
X116457389Y-84285134D01*
X116575000Y-84036633D01*
X116692611Y-84285134D01*
X117107577Y-84661041D01*
X117495961Y-84821904D01*
X117718000Y-84699915D01*
X117718000Y-83557000D01*
X115432000Y-83557000D01*
X115178000Y-83557000D01*
X112892000Y-83557000D01*
X112638000Y-83557000D01*
X111494371Y-83557000D01*
X111373086Y-83779041D01*
X110947743Y-83779041D01*
X110249661Y-83080959D01*
X111373086Y-83080959D01*
X111494371Y-83303000D01*
X112638000Y-83303000D01*
X112638000Y-82160085D01*
X112892000Y-82160085D01*
X112892000Y-83303000D01*
X115178000Y-83303000D01*
X115178000Y-82160085D01*
X115432000Y-82160085D01*
X115432000Y-83303000D01*
X117718000Y-83303000D01*
X117718000Y-82160085D01*
X117495961Y-82038096D01*
X117107577Y-82198959D01*
X116692611Y-82574866D01*
X116575000Y-82823367D01*
X116457389Y-82574866D01*
X116042423Y-82198959D01*
X115654039Y-82038096D01*
X115432000Y-82160085D01*
X115178000Y-82160085D01*
X114955961Y-82038096D01*
X114567577Y-82198959D01*
X114152611Y-82574866D01*
X114035000Y-82823367D01*
X113917389Y-82574866D01*
X113502423Y-82198959D01*
X113114039Y-82038096D01*
X112892000Y-82160085D01*
X112638000Y-82160085D01*
X112415961Y-82038096D01*
X112027577Y-82198959D01*
X111612611Y-82574866D01*
X111373086Y-83080959D01*
X110249661Y-83080959D01*
X107061600Y-79892898D01*
X107061600Y-53040724D01*
X107249161Y-53166048D01*
G36*
X127987000Y-90128000D02*
X128007000Y-90128000D01*
X128007000Y-90382000D01*
X127987000Y-90382000D01*
X127987000Y-90402000D01*
X127733000Y-90402000D01*
X127733000Y-90382000D01*
X127713000Y-90382000D01*
X127713000Y-90128000D01*
X127733000Y-90128000D01*
X127733000Y-90108000D01*
X127987000Y-90108000D01*
X127987000Y-90128000D01*
X127987000Y-90128000D01*
G37*
X127987000Y-90128000D02*
X128007000Y-90128000D01*
X128007000Y-90382000D01*
X127987000Y-90382000D01*
X127987000Y-90402000D01*
X127733000Y-90402000D01*
X127733000Y-90382000D01*
X127713000Y-90382000D01*
X127713000Y-90128000D01*
X127733000Y-90128000D01*
X127733000Y-90108000D01*
X127987000Y-90108000D01*
X127987000Y-90128000D01*
G36*
X124555302Y-69092811D02*
X125020849Y-69403880D01*
X125570000Y-69513113D01*
X126119151Y-69403880D01*
X126225483Y-69332831D01*
X126438073Y-69545792D01*
X126598211Y-69612287D01*
X123744599Y-72465899D01*
X123579852Y-72712461D01*
X123522000Y-73003300D01*
X123522000Y-74520798D01*
X123274039Y-74418096D01*
X123052000Y-74540085D01*
X123052000Y-75683000D01*
X123072000Y-75683000D01*
X123072000Y-75937000D01*
X123052000Y-75937000D01*
X123052000Y-77079915D01*
X123274039Y-77201904D01*
X123522000Y-77099202D01*
X123522000Y-81856495D01*
X123462401Y-81767299D01*
X122559700Y-80864598D01*
X122559700Y-77195169D01*
X122575961Y-77201904D01*
X122798000Y-77079915D01*
X122798000Y-75937000D01*
X122778000Y-75937000D01*
X122778000Y-75683000D01*
X122798000Y-75683000D01*
X122798000Y-74540085D01*
X122575961Y-74418096D01*
X122559700Y-74424831D01*
X122559700Y-69419564D01*
X123030000Y-69513113D01*
X123579151Y-69403880D01*
X124044698Y-69092811D01*
X124300000Y-68710725D01*
X124555302Y-69092811D01*
X124555302Y-69092811D01*
G37*
X124555302Y-69092811D02*
X125020849Y-69403880D01*
X125570000Y-69513113D01*
X126119151Y-69403880D01*
X126225483Y-69332831D01*
X126438073Y-69545792D01*
X126598211Y-69612287D01*
X123744599Y-72465899D01*
X123579852Y-72712461D01*
X123522000Y-73003300D01*
X123522000Y-74520798D01*
X123274039Y-74418096D01*
X123052000Y-74540085D01*
X123052000Y-75683000D01*
X123072000Y-75683000D01*
X123072000Y-75937000D01*
X123052000Y-75937000D01*
X123052000Y-77079915D01*
X123274039Y-77201904D01*
X123522000Y-77099202D01*
X123522000Y-81856495D01*
X123462401Y-81767299D01*
X122559700Y-80864598D01*
X122559700Y-77195169D01*
X122575961Y-77201904D01*
X122798000Y-77079915D01*
X122798000Y-75937000D01*
X122778000Y-75937000D01*
X122778000Y-75683000D01*
X122798000Y-75683000D01*
X122798000Y-74540085D01*
X122575961Y-74418096D01*
X122559700Y-74424831D01*
X122559700Y-69419564D01*
X123030000Y-69513113D01*
X123579151Y-69403880D01*
X124044698Y-69092811D01*
X124300000Y-68710725D01*
X124555302Y-69092811D01*
G36*
X116935302Y-61472811D02*
X117190000Y-61642995D01*
X117190000Y-62404400D01*
X117247852Y-62695239D01*
X117412599Y-62941801D01*
X118315300Y-63844502D01*
X118315300Y-66664831D01*
X118299039Y-66658096D01*
X118077000Y-66780085D01*
X118077000Y-67923000D01*
X118097000Y-67923000D01*
X118097000Y-68177000D01*
X118077000Y-68177000D01*
X118077000Y-69319915D01*
X118299039Y-69441904D01*
X118315300Y-69435169D01*
X118315300Y-73139598D01*
X117307599Y-74147299D01*
X117142852Y-74393861D01*
X117105118Y-74583563D01*
X116830302Y-74767189D01*
X116575000Y-75149275D01*
X116319698Y-74767189D01*
X116044882Y-74583563D01*
X116007148Y-74393861D01*
X115842401Y-74147299D01*
X115044700Y-73349598D01*
X115044700Y-69435169D01*
X115060961Y-69441904D01*
X115283000Y-69319915D01*
X115283000Y-68177000D01*
X115537000Y-68177000D01*
X115537000Y-69319915D01*
X115759039Y-69441904D01*
X116147423Y-69281041D01*
X116562389Y-68905134D01*
X116680000Y-68656633D01*
X116797611Y-68905134D01*
X117212577Y-69281041D01*
X117600961Y-69441904D01*
X117823000Y-69319915D01*
X117823000Y-68177000D01*
X115537000Y-68177000D01*
X115283000Y-68177000D01*
X115263000Y-68177000D01*
X115263000Y-67923000D01*
X115283000Y-67923000D01*
X115283000Y-66780085D01*
X115537000Y-66780085D01*
X115537000Y-67923000D01*
X117823000Y-67923000D01*
X117823000Y-66780085D01*
X117600961Y-66658096D01*
X117212577Y-66818959D01*
X116797611Y-67194866D01*
X116680000Y-67443367D01*
X116562389Y-67194866D01*
X116147423Y-66818959D01*
X115759039Y-66658096D01*
X115537000Y-66780085D01*
X115283000Y-66780085D01*
X115060961Y-66658096D01*
X115044700Y-66664831D01*
X115044700Y-62995402D01*
X115947401Y-62092701D01*
X116112148Y-61846139D01*
X116149882Y-61656437D01*
X116424698Y-61472811D01*
X116680000Y-61090725D01*
X116935302Y-61472811D01*
X116935302Y-61472811D01*
G37*
X116935302Y-61472811D02*
X117190000Y-61642995D01*
X117190000Y-62404400D01*
X117247852Y-62695239D01*
X117412599Y-62941801D01*
X118315300Y-63844502D01*
X118315300Y-66664831D01*
X118299039Y-66658096D01*
X118077000Y-66780085D01*
X118077000Y-67923000D01*
X118097000Y-67923000D01*
X118097000Y-68177000D01*
X118077000Y-68177000D01*
X118077000Y-69319915D01*
X118299039Y-69441904D01*
X118315300Y-69435169D01*
X118315300Y-73139598D01*
X117307599Y-74147299D01*
X117142852Y-74393861D01*
X117105118Y-74583563D01*
X116830302Y-74767189D01*
X116575000Y-75149275D01*
X116319698Y-74767189D01*
X116044882Y-74583563D01*
X116007148Y-74393861D01*
X115842401Y-74147299D01*
X115044700Y-73349598D01*
X115044700Y-69435169D01*
X115060961Y-69441904D01*
X115283000Y-69319915D01*
X115283000Y-68177000D01*
X115537000Y-68177000D01*
X115537000Y-69319915D01*
X115759039Y-69441904D01*
X116147423Y-69281041D01*
X116562389Y-68905134D01*
X116680000Y-68656633D01*
X116797611Y-68905134D01*
X117212577Y-69281041D01*
X117600961Y-69441904D01*
X117823000Y-69319915D01*
X117823000Y-68177000D01*
X115537000Y-68177000D01*
X115283000Y-68177000D01*
X115263000Y-68177000D01*
X115263000Y-67923000D01*
X115283000Y-67923000D01*
X115283000Y-66780085D01*
X115537000Y-66780085D01*
X115537000Y-67923000D01*
X117823000Y-67923000D01*
X117823000Y-66780085D01*
X117600961Y-66658096D01*
X117212577Y-66818959D01*
X116797611Y-67194866D01*
X116680000Y-67443367D01*
X116562389Y-67194866D01*
X116147423Y-66818959D01*
X115759039Y-66658096D01*
X115537000Y-66780085D01*
X115283000Y-66780085D01*
X115060961Y-66658096D01*
X115044700Y-66664831D01*
X115044700Y-62995402D01*
X115947401Y-62092701D01*
X116112148Y-61846139D01*
X116149882Y-61656437D01*
X116424698Y-61472811D01*
X116680000Y-61090725D01*
X116935302Y-61472811D01*
G36*
X115287000Y-51148000D02*
X115307000Y-51148000D01*
X115307000Y-51402000D01*
X115287000Y-51402000D01*
X115287000Y-52609469D01*
X115519027Y-52729968D01*
X116048490Y-52481821D01*
X116430008Y-52063839D01*
X116610971Y-52334670D01*
X117097152Y-52659526D01*
X117670641Y-52773600D01*
X117729359Y-52773600D01*
X118302848Y-52659526D01*
X118789029Y-52334670D01*
X118970000Y-52063828D01*
X119150971Y-52334670D01*
X119637152Y-52659526D01*
X120210641Y-52773600D01*
X120269359Y-52773600D01*
X120842848Y-52659526D01*
X121329029Y-52334670D01*
X121510000Y-52063828D01*
X121690971Y-52334670D01*
X122177152Y-52659526D01*
X122750641Y-52773600D01*
X122809359Y-52773600D01*
X123382848Y-52659526D01*
X123869029Y-52334670D01*
X124050000Y-52063828D01*
X124230971Y-52334670D01*
X124717152Y-52659526D01*
X125290641Y-52773600D01*
X125349359Y-52773600D01*
X125922848Y-52659526D01*
X126409029Y-52334670D01*
X126590000Y-52063828D01*
X126770971Y-52334670D01*
X127257152Y-52659526D01*
X127830641Y-52773600D01*
X127889359Y-52773600D01*
X128462848Y-52659526D01*
X128949029Y-52334670D01*
X129130000Y-52063828D01*
X129310971Y-52334670D01*
X129797152Y-52659526D01*
X130370641Y-52773600D01*
X130429359Y-52773600D01*
X131002848Y-52659526D01*
X131489029Y-52334670D01*
X131670000Y-52063828D01*
X131850971Y-52334670D01*
X131936967Y-52392131D01*
X131382599Y-52946499D01*
X131217852Y-53193061D01*
X131160000Y-53483900D01*
X131160000Y-59068332D01*
X130650000Y-58966887D01*
X130100849Y-59076120D01*
X129635302Y-59387189D01*
X129380000Y-59769275D01*
X129124698Y-59387189D01*
X128659151Y-59076120D01*
X128110000Y-58966887D01*
X127560849Y-59076120D01*
X127095302Y-59387189D01*
X126840000Y-59769275D01*
X126584698Y-59387189D01*
X126119151Y-59076120D01*
X125570000Y-58966887D01*
X125020849Y-59076120D01*
X124555302Y-59387189D01*
X124300000Y-59769275D01*
X124044698Y-59387189D01*
X123579151Y-59076120D01*
X123030000Y-58966887D01*
X122480849Y-59076120D01*
X122015302Y-59387189D01*
X121760000Y-59769275D01*
X121504698Y-59387189D01*
X121039151Y-59076120D01*
X120490000Y-58966887D01*
X120042804Y-59055840D01*
X120002548Y-58853461D01*
X120002548Y-58853460D01*
X119837801Y-58606899D01*
X113623033Y-52392131D01*
X113709029Y-52334670D01*
X113889992Y-52063839D01*
X114271510Y-52481821D01*
X114800973Y-52729968D01*
X115033000Y-52609469D01*
X115033000Y-51402000D01*
X115013000Y-51402000D01*
X115013000Y-51148000D01*
X115033000Y-51148000D01*
X115033000Y-51128000D01*
X115287000Y-51128000D01*
X115287000Y-51148000D01*
X115287000Y-51148000D01*
G37*
X115287000Y-51148000D02*
X115307000Y-51148000D01*
X115307000Y-51402000D01*
X115287000Y-51402000D01*
X115287000Y-52609469D01*
X115519027Y-52729968D01*
X116048490Y-52481821D01*
X116430008Y-52063839D01*
X116610971Y-52334670D01*
X117097152Y-52659526D01*
X117670641Y-52773600D01*
X117729359Y-52773600D01*
X118302848Y-52659526D01*
X118789029Y-52334670D01*
X118970000Y-52063828D01*
X119150971Y-52334670D01*
X119637152Y-52659526D01*
X120210641Y-52773600D01*
X120269359Y-52773600D01*
X120842848Y-52659526D01*
X121329029Y-52334670D01*
X121510000Y-52063828D01*
X121690971Y-52334670D01*
X122177152Y-52659526D01*
X122750641Y-52773600D01*
X122809359Y-52773600D01*
X123382848Y-52659526D01*
X123869029Y-52334670D01*
X124050000Y-52063828D01*
X124230971Y-52334670D01*
X124717152Y-52659526D01*
X125290641Y-52773600D01*
X125349359Y-52773600D01*
X125922848Y-52659526D01*
X126409029Y-52334670D01*
X126590000Y-52063828D01*
X126770971Y-52334670D01*
X127257152Y-52659526D01*
X127830641Y-52773600D01*
X127889359Y-52773600D01*
X128462848Y-52659526D01*
X128949029Y-52334670D01*
X129130000Y-52063828D01*
X129310971Y-52334670D01*
X129797152Y-52659526D01*
X130370641Y-52773600D01*
X130429359Y-52773600D01*
X131002848Y-52659526D01*
X131489029Y-52334670D01*
X131670000Y-52063828D01*
X131850971Y-52334670D01*
X131936967Y-52392131D01*
X131382599Y-52946499D01*
X131217852Y-53193061D01*
X131160000Y-53483900D01*
X131160000Y-59068332D01*
X130650000Y-58966887D01*
X130100849Y-59076120D01*
X129635302Y-59387189D01*
X129380000Y-59769275D01*
X129124698Y-59387189D01*
X128659151Y-59076120D01*
X128110000Y-58966887D01*
X127560849Y-59076120D01*
X127095302Y-59387189D01*
X126840000Y-59769275D01*
X126584698Y-59387189D01*
X126119151Y-59076120D01*
X125570000Y-58966887D01*
X125020849Y-59076120D01*
X124555302Y-59387189D01*
X124300000Y-59769275D01*
X124044698Y-59387189D01*
X123579151Y-59076120D01*
X123030000Y-58966887D01*
X122480849Y-59076120D01*
X122015302Y-59387189D01*
X121760000Y-59769275D01*
X121504698Y-59387189D01*
X121039151Y-59076120D01*
X120490000Y-58966887D01*
X120042804Y-59055840D01*
X120002548Y-58853461D01*
X120002548Y-58853460D01*
X119837801Y-58606899D01*
X113623033Y-52392131D01*
X113709029Y-52334670D01*
X113889992Y-52063839D01*
X114271510Y-52481821D01*
X114800973Y-52729968D01*
X115033000Y-52609469D01*
X115033000Y-51402000D01*
X115013000Y-51402000D01*
X115013000Y-51148000D01*
X115033000Y-51148000D01*
X115033000Y-51128000D01*
X115287000Y-51128000D01*
X115287000Y-51148000D01*
G36*
X110207000Y-48608000D02*
X110227000Y-48608000D01*
X110227000Y-48862000D01*
X110207000Y-48862000D01*
X110207000Y-48882000D01*
X109953000Y-48882000D01*
X109953000Y-48862000D01*
X109933000Y-48862000D01*
X109933000Y-48608000D01*
X109953000Y-48608000D01*
X109953000Y-48588000D01*
X110207000Y-48588000D01*
X110207000Y-48608000D01*
X110207000Y-48608000D01*
G37*
X110207000Y-48608000D02*
X110227000Y-48608000D01*
X110227000Y-48862000D01*
X110207000Y-48862000D01*
X110207000Y-48882000D01*
X109953000Y-48882000D01*
X109953000Y-48862000D01*
X109933000Y-48862000D01*
X109933000Y-48608000D01*
X109953000Y-48608000D01*
X109953000Y-48588000D01*
X110207000Y-48588000D01*
X110207000Y-48608000D01*
M02*
