M48
METRIC,TZ
T1C0.400
T2C0.800
T3C1.016
T4C3.100
%
G90
G05
T1
X102830Y-82210
X123415Y-88637
X125275Y-87935
X125328Y-80832
X126968Y-68754
T2
X112765Y-75810
X112765Y-83430
X112870Y-60430
X112870Y-68050
X115305Y-75810
X115305Y-83430
X115410Y-60430
X115410Y-68050
X117845Y-75810
X117845Y-83430
X117950Y-60430
X117950Y-68050
X120385Y-75810
X120385Y-83430
X120490Y-60430
X120490Y-68050
X122925Y-75810
X122925Y-83430
X123030Y-60430
X123030Y-68050
X125465Y-75810
X125465Y-83430
X125570Y-60430
X125570Y-68050
X128005Y-75810
X128005Y-83430
X128110Y-60430
X128110Y-68050
X130545Y-75810
X130545Y-83430
X130650Y-60430
X130650Y-68050
X133085Y-75810
X133085Y-83430
X133190Y-60430
X133190Y-68050
X135625Y-75810
X135625Y-83430
X135730Y-60430
X135730Y-68050
X138165Y-75810
X138165Y-83430
X138270Y-60430
X138270Y-68050
X140705Y-75810
X140705Y-83430
X140810Y-60430
X140810Y-68050
X143245Y-75810
X143245Y-83430
X143350Y-60430
X143350Y-68050
X145785Y-75810
X145785Y-83430
X145890Y-60430
X145890Y-68050
T3
X105000Y-48735
X105000Y-51275
X105000Y-90255
X105000Y-92795
X107540Y-48735
X107540Y-51275
X107540Y-90255
X107540Y-92795
X110080Y-48735
X110080Y-51275
X110080Y-90255
X110080Y-92795
X112620Y-48735
X112620Y-51275
X112620Y-90255
X112620Y-92795
X115160Y-48735
X115160Y-51275
X115160Y-90255
X115160Y-92795
X117700Y-48735
X117700Y-51275
X117700Y-90255
X117700Y-92795
X120240Y-48735
X120240Y-51275
X120240Y-90255
X120240Y-92795
X122780Y-48735
X122780Y-51275
X122780Y-90255
X122780Y-92795
X125320Y-48735
X125320Y-51275
X125320Y-90255
X125320Y-92795
X127860Y-48735
X127860Y-51275
X127860Y-90255
X127860Y-92795
X130400Y-48735
X130400Y-51275
X130400Y-90255
X130400Y-92795
X132940Y-48735
X132940Y-51275
X132940Y-90255
X132940Y-92795
X135480Y-48735
X135480Y-51275
X135480Y-90255
X135480Y-92795
X138020Y-48735
X138020Y-51275
X138020Y-90255
X138020Y-92795
X140560Y-48735
X140560Y-51275
X140560Y-90255
X140560Y-92795
X143100Y-48735
X143100Y-51275
X143100Y-90255
X143100Y-92795
X145640Y-48735
X145640Y-51275
X145640Y-90255
X145640Y-92795
X148180Y-48735
X148180Y-51275
X148180Y-90255
X148180Y-92795
X150720Y-48735
X150720Y-51275
X150720Y-90255
X150720Y-92795
X153260Y-48735
X153260Y-51275
X153260Y-90255
X153260Y-92795
T4
X100000Y-50000
X158260Y-50000
T0
M30
