G04 #@! TF.FileFunction,Legend,Top*
%FSLAX46Y46*%
G04 Gerber Fmt 4.6, Leading zero omitted, Abs format (unit mm)*
G04 Created by KiCad (PCBNEW 4.0.1-3.201512221401+6198~38~ubuntu15.10.1-stable) date Mon 19 Dec 2016 04:42:47 PM PST*
%MOMM*%
G01*
G04 APERTURE LIST*
%ADD10C,0.100000*%
%ADD11C,0.300000*%
%ADD12C,0.150000*%
G04 APERTURE END LIST*
D10*
D11*
X142238571Y-87903571D02*
X142238571Y-86403571D01*
X142809999Y-86403571D01*
X142952857Y-86475000D01*
X143024285Y-86546429D01*
X143095714Y-86689286D01*
X143095714Y-86903571D01*
X143024285Y-87046429D01*
X142952857Y-87117857D01*
X142809999Y-87189286D01*
X142238571Y-87189286D01*
X143738571Y-87903571D02*
X143738571Y-86403571D01*
X145595714Y-87903571D02*
X145595714Y-86403571D01*
X146595714Y-86403571D02*
X146881428Y-86403571D01*
X147024286Y-86475000D01*
X147167143Y-86617857D01*
X147238571Y-86903571D01*
X147238571Y-87403571D01*
X147167143Y-87689286D01*
X147024286Y-87832143D01*
X146881428Y-87903571D01*
X146595714Y-87903571D01*
X146452857Y-87832143D01*
X146310000Y-87689286D01*
X146238571Y-87403571D01*
X146238571Y-86903571D01*
X146310000Y-86617857D01*
X146452857Y-86475000D01*
X146595714Y-86403571D01*
X149881429Y-87760714D02*
X149810000Y-87832143D01*
X149595714Y-87903571D01*
X149452857Y-87903571D01*
X149238572Y-87832143D01*
X149095714Y-87689286D01*
X149024286Y-87546429D01*
X148952857Y-87260714D01*
X148952857Y-87046429D01*
X149024286Y-86760714D01*
X149095714Y-86617857D01*
X149238572Y-86475000D01*
X149452857Y-86403571D01*
X149595714Y-86403571D01*
X149810000Y-86475000D01*
X149881429Y-86546429D01*
X150738572Y-87903571D02*
X150595714Y-87832143D01*
X150524286Y-87760714D01*
X150452857Y-87617857D01*
X150452857Y-87189286D01*
X150524286Y-87046429D01*
X150595714Y-86975000D01*
X150738572Y-86903571D01*
X150952857Y-86903571D01*
X151095714Y-86975000D01*
X151167143Y-87046429D01*
X151238572Y-87189286D01*
X151238572Y-87617857D01*
X151167143Y-87760714D01*
X151095714Y-87832143D01*
X150952857Y-87903571D01*
X150738572Y-87903571D01*
X151881429Y-86903571D02*
X151881429Y-87903571D01*
X151881429Y-87046429D02*
X151952857Y-86975000D01*
X152095715Y-86903571D01*
X152310000Y-86903571D01*
X152452857Y-86975000D01*
X152524286Y-87117857D01*
X152524286Y-87903571D01*
X153238572Y-86903571D02*
X153238572Y-87903571D01*
X153238572Y-87046429D02*
X153310000Y-86975000D01*
X153452858Y-86903571D01*
X153667143Y-86903571D01*
X153810000Y-86975000D01*
X153881429Y-87117857D01*
X153881429Y-87903571D01*
X139727142Y-54118571D02*
X140012856Y-54118571D01*
X140155714Y-54190000D01*
X140298571Y-54332857D01*
X140369999Y-54618571D01*
X140369999Y-55118571D01*
X140298571Y-55404286D01*
X140155714Y-55547143D01*
X140012856Y-55618571D01*
X139727142Y-55618571D01*
X139584285Y-55547143D01*
X139441428Y-55404286D01*
X139369999Y-55118571D01*
X139369999Y-54618571D01*
X139441428Y-54332857D01*
X139584285Y-54190000D01*
X139727142Y-54118571D01*
X141012857Y-55618571D02*
X141012857Y-54118571D01*
X141370000Y-54118571D01*
X141584285Y-54190000D01*
X141727143Y-54332857D01*
X141798571Y-54475714D01*
X141870000Y-54761429D01*
X141870000Y-54975714D01*
X141798571Y-55261429D01*
X141727143Y-55404286D01*
X141584285Y-55547143D01*
X141370000Y-55618571D01*
X141012857Y-55618571D01*
X143370000Y-55618571D02*
X142870000Y-54904286D01*
X142512857Y-55618571D02*
X142512857Y-54118571D01*
X143084285Y-54118571D01*
X143227143Y-54190000D01*
X143298571Y-54261429D01*
X143370000Y-54404286D01*
X143370000Y-54618571D01*
X143298571Y-54761429D01*
X143227143Y-54832857D01*
X143084285Y-54904286D01*
X142512857Y-54904286D01*
X144298571Y-54118571D02*
X144584285Y-54118571D01*
X144727143Y-54190000D01*
X144870000Y-54332857D01*
X144941428Y-54618571D01*
X144941428Y-55118571D01*
X144870000Y-55404286D01*
X144727143Y-55547143D01*
X144584285Y-55618571D01*
X144298571Y-55618571D01*
X144155714Y-55547143D01*
X144012857Y-55404286D01*
X143941428Y-55118571D01*
X143941428Y-54618571D01*
X144012857Y-54332857D01*
X144155714Y-54190000D01*
X144298571Y-54118571D01*
X145584286Y-55618571D02*
X145584286Y-54118571D01*
X146298572Y-55618571D02*
X146298572Y-54118571D01*
X146655715Y-54118571D01*
X146870000Y-54190000D01*
X147012858Y-54332857D01*
X147084286Y-54475714D01*
X147155715Y-54761429D01*
X147155715Y-54975714D01*
X147084286Y-55261429D01*
X147012858Y-55404286D01*
X146870000Y-55547143D01*
X146655715Y-55618571D01*
X146298572Y-55618571D01*
X149798572Y-55475714D02*
X149727143Y-55547143D01*
X149512857Y-55618571D01*
X149370000Y-55618571D01*
X149155715Y-55547143D01*
X149012857Y-55404286D01*
X148941429Y-55261429D01*
X148870000Y-54975714D01*
X148870000Y-54761429D01*
X148941429Y-54475714D01*
X149012857Y-54332857D01*
X149155715Y-54190000D01*
X149370000Y-54118571D01*
X149512857Y-54118571D01*
X149727143Y-54190000D01*
X149798572Y-54261429D01*
X150655715Y-55618571D02*
X150512857Y-55547143D01*
X150441429Y-55475714D01*
X150370000Y-55332857D01*
X150370000Y-54904286D01*
X150441429Y-54761429D01*
X150512857Y-54690000D01*
X150655715Y-54618571D01*
X150870000Y-54618571D01*
X151012857Y-54690000D01*
X151084286Y-54761429D01*
X151155715Y-54904286D01*
X151155715Y-55332857D01*
X151084286Y-55475714D01*
X151012857Y-55547143D01*
X150870000Y-55618571D01*
X150655715Y-55618571D01*
X151798572Y-54618571D02*
X151798572Y-55618571D01*
X151798572Y-54761429D02*
X151870000Y-54690000D01*
X152012858Y-54618571D01*
X152227143Y-54618571D01*
X152370000Y-54690000D01*
X152441429Y-54832857D01*
X152441429Y-55618571D01*
X153155715Y-54618571D02*
X153155715Y-55618571D01*
X153155715Y-54761429D02*
X153227143Y-54690000D01*
X153370001Y-54618571D01*
X153584286Y-54618571D01*
X153727143Y-54690000D01*
X153798572Y-54832857D01*
X153798572Y-55618571D01*
X158610000Y-92144998D02*
X158538571Y-92216426D01*
X158324286Y-92359283D01*
X158181429Y-92430712D01*
X157967143Y-92502141D01*
X157610000Y-92573569D01*
X157324286Y-92573569D01*
X156967143Y-92502141D01*
X156752857Y-92430712D01*
X156610000Y-92359283D01*
X156395714Y-92216426D01*
X156324286Y-92144998D01*
X157895714Y-90716426D02*
X157967143Y-90787855D01*
X158038571Y-91002141D01*
X158038571Y-91144998D01*
X157967143Y-91359283D01*
X157824286Y-91502141D01*
X157681429Y-91573569D01*
X157395714Y-91644998D01*
X157181429Y-91644998D01*
X156895714Y-91573569D01*
X156752857Y-91502141D01*
X156610000Y-91359283D01*
X156538571Y-91144998D01*
X156538571Y-91002141D01*
X156610000Y-90787855D01*
X156681429Y-90716426D01*
X158610000Y-90216426D02*
X158538571Y-90144998D01*
X158324286Y-90002141D01*
X158181429Y-89930712D01*
X157967143Y-89859283D01*
X157610000Y-89787855D01*
X157324286Y-89787855D01*
X156967143Y-89859283D01*
X156752857Y-89930712D01*
X156610000Y-90002141D01*
X156395714Y-90144998D01*
X156324286Y-90216426D01*
X156681429Y-88002141D02*
X156610000Y-87930712D01*
X156538571Y-87787855D01*
X156538571Y-87430712D01*
X156610000Y-87287855D01*
X156681429Y-87216426D01*
X156824286Y-87144998D01*
X156967143Y-87144998D01*
X157181429Y-87216426D01*
X158038571Y-88073569D01*
X158038571Y-87144998D01*
X156538571Y-86216427D02*
X156538571Y-86073570D01*
X156610000Y-85930713D01*
X156681429Y-85859284D01*
X156824286Y-85787855D01*
X157110000Y-85716427D01*
X157467143Y-85716427D01*
X157752857Y-85787855D01*
X157895714Y-85859284D01*
X157967143Y-85930713D01*
X158038571Y-86073570D01*
X158038571Y-86216427D01*
X157967143Y-86359284D01*
X157895714Y-86430713D01*
X157752857Y-86502141D01*
X157467143Y-86573570D01*
X157110000Y-86573570D01*
X156824286Y-86502141D01*
X156681429Y-86430713D01*
X156610000Y-86359284D01*
X156538571Y-86216427D01*
X158038571Y-84287856D02*
X158038571Y-85144999D01*
X158038571Y-84716427D02*
X156538571Y-84716427D01*
X156752857Y-84859284D01*
X156895714Y-85002142D01*
X156967143Y-85144999D01*
X156538571Y-83002142D02*
X156538571Y-83287856D01*
X156610000Y-83430713D01*
X156681429Y-83502142D01*
X156895714Y-83644999D01*
X157181429Y-83716428D01*
X157752857Y-83716428D01*
X157895714Y-83644999D01*
X157967143Y-83573571D01*
X158038571Y-83430713D01*
X158038571Y-83144999D01*
X157967143Y-83002142D01*
X157895714Y-82930713D01*
X157752857Y-82859285D01*
X157395714Y-82859285D01*
X157252857Y-82930713D01*
X157181429Y-83002142D01*
X157110000Y-83144999D01*
X157110000Y-83430713D01*
X157181429Y-83573571D01*
X157252857Y-83644999D01*
X157395714Y-83716428D01*
X158038571Y-81073571D02*
X156538571Y-81073571D01*
X157110000Y-81073571D02*
X157038571Y-80930714D01*
X157038571Y-80645000D01*
X157110000Y-80502143D01*
X157181429Y-80430714D01*
X157324286Y-80359285D01*
X157752857Y-80359285D01*
X157895714Y-80430714D01*
X157967143Y-80502143D01*
X158038571Y-80645000D01*
X158038571Y-80930714D01*
X157967143Y-81073571D01*
X157038571Y-79859285D02*
X158038571Y-79502142D01*
X157038571Y-79145000D02*
X158038571Y-79502142D01*
X158395714Y-79645000D01*
X158467143Y-79716428D01*
X158538571Y-79859285D01*
X157967143Y-77502143D02*
X158038571Y-77287857D01*
X158038571Y-76930714D01*
X157967143Y-76787857D01*
X157895714Y-76716428D01*
X157752857Y-76645000D01*
X157610000Y-76645000D01*
X157467143Y-76716428D01*
X157395714Y-76787857D01*
X157324286Y-76930714D01*
X157252857Y-77216428D01*
X157181429Y-77359286D01*
X157110000Y-77430714D01*
X156967143Y-77502143D01*
X156824286Y-77502143D01*
X156681429Y-77430714D01*
X156610000Y-77359286D01*
X156538571Y-77216428D01*
X156538571Y-76859286D01*
X156610000Y-76645000D01*
X157038571Y-76216429D02*
X157038571Y-75645000D01*
X156538571Y-76002143D02*
X157824286Y-76002143D01*
X157967143Y-75930715D01*
X158038571Y-75787857D01*
X158038571Y-75645000D01*
X157967143Y-74573572D02*
X158038571Y-74716429D01*
X158038571Y-75002143D01*
X157967143Y-75145000D01*
X157824286Y-75216429D01*
X157252857Y-75216429D01*
X157110000Y-75145000D01*
X157038571Y-75002143D01*
X157038571Y-74716429D01*
X157110000Y-74573572D01*
X157252857Y-74502143D01*
X157395714Y-74502143D01*
X157538571Y-75216429D01*
X157038571Y-74002143D02*
X158038571Y-73645000D01*
X157038571Y-73287858D01*
X157967143Y-72145001D02*
X158038571Y-72287858D01*
X158038571Y-72573572D01*
X157967143Y-72716429D01*
X157824286Y-72787858D01*
X157252857Y-72787858D01*
X157110000Y-72716429D01*
X157038571Y-72573572D01*
X157038571Y-72287858D01*
X157110000Y-72145001D01*
X157252857Y-72073572D01*
X157395714Y-72073572D01*
X157538571Y-72787858D01*
X157038571Y-71430715D02*
X158038571Y-71430715D01*
X157181429Y-71430715D02*
X157110000Y-71359287D01*
X157038571Y-71216429D01*
X157038571Y-71002144D01*
X157110000Y-70859287D01*
X157252857Y-70787858D01*
X158038571Y-70787858D01*
X156538571Y-69073572D02*
X158038571Y-68716429D01*
X156967143Y-68430715D01*
X158038571Y-68145001D01*
X156538571Y-67787858D01*
X158038571Y-67216429D02*
X157038571Y-67216429D01*
X156538571Y-67216429D02*
X156610000Y-67287858D01*
X156681429Y-67216429D01*
X156610000Y-67145001D01*
X156538571Y-67216429D01*
X156681429Y-67216429D01*
X158038571Y-66287857D02*
X157967143Y-66430715D01*
X157824286Y-66502143D01*
X156538571Y-66502143D01*
X157967143Y-65787858D02*
X158038571Y-65645001D01*
X158038571Y-65359286D01*
X157967143Y-65216429D01*
X157824286Y-65145001D01*
X157752857Y-65145001D01*
X157610000Y-65216429D01*
X157538571Y-65359286D01*
X157538571Y-65573572D01*
X157467143Y-65716429D01*
X157324286Y-65787858D01*
X157252857Y-65787858D01*
X157110000Y-65716429D01*
X157038571Y-65573572D01*
X157038571Y-65359286D01*
X157110000Y-65216429D01*
X158038571Y-64287857D02*
X157967143Y-64430715D01*
X157895714Y-64502143D01*
X157752857Y-64573572D01*
X157324286Y-64573572D01*
X157181429Y-64502143D01*
X157110000Y-64430715D01*
X157038571Y-64287857D01*
X157038571Y-64073572D01*
X157110000Y-63930715D01*
X157181429Y-63859286D01*
X157324286Y-63787857D01*
X157752857Y-63787857D01*
X157895714Y-63859286D01*
X157967143Y-63930715D01*
X158038571Y-64073572D01*
X158038571Y-64287857D01*
X157038571Y-63145000D02*
X158038571Y-63145000D01*
X157181429Y-63145000D02*
X157110000Y-63073572D01*
X157038571Y-62930714D01*
X157038571Y-62716429D01*
X157110000Y-62573572D01*
X157252857Y-62502143D01*
X158038571Y-62502143D01*
X158038571Y-60645000D02*
X156538571Y-60645000D01*
X158038571Y-59787857D02*
X157181429Y-60430714D01*
X156538571Y-59787857D02*
X157395714Y-60645000D01*
X157610000Y-59216429D02*
X157610000Y-58502143D01*
X158038571Y-59359286D02*
X156538571Y-58859286D01*
X158038571Y-58359286D01*
X156538571Y-57216429D02*
X156538571Y-57502143D01*
X156610000Y-57645000D01*
X156681429Y-57716429D01*
X156895714Y-57859286D01*
X157181429Y-57930715D01*
X157752857Y-57930715D01*
X157895714Y-57859286D01*
X157967143Y-57787858D01*
X158038571Y-57645000D01*
X158038571Y-57359286D01*
X157967143Y-57216429D01*
X157895714Y-57145000D01*
X157752857Y-57073572D01*
X157395714Y-57073572D01*
X157252857Y-57145000D01*
X157181429Y-57216429D01*
X157110000Y-57359286D01*
X157110000Y-57645000D01*
X157181429Y-57787858D01*
X157252857Y-57859286D01*
X157395714Y-57930715D01*
X157967143Y-56502144D02*
X158038571Y-56287858D01*
X158038571Y-55930715D01*
X157967143Y-55787858D01*
X157895714Y-55716429D01*
X157752857Y-55645001D01*
X157610000Y-55645001D01*
X157467143Y-55716429D01*
X157395714Y-55787858D01*
X157324286Y-55930715D01*
X157252857Y-56216429D01*
X157181429Y-56359287D01*
X157110000Y-56430715D01*
X156967143Y-56502144D01*
X156824286Y-56502144D01*
X156681429Y-56430715D01*
X156610000Y-56359287D01*
X156538571Y-56216429D01*
X156538571Y-55859287D01*
X156610000Y-55645001D01*
X158938571Y-87716429D02*
X158938571Y-87430715D01*
X159010000Y-87287857D01*
X159152857Y-87145000D01*
X159438571Y-87073572D01*
X159938571Y-87073572D01*
X160224286Y-87145000D01*
X160367143Y-87287857D01*
X160438571Y-87430715D01*
X160438571Y-87716429D01*
X160367143Y-87859286D01*
X160224286Y-88002143D01*
X159938571Y-88073572D01*
X159438571Y-88073572D01*
X159152857Y-88002143D01*
X159010000Y-87859286D01*
X158938571Y-87716429D01*
X160438571Y-86430714D02*
X158938571Y-86430714D01*
X158938571Y-86073571D01*
X159010000Y-85859286D01*
X159152857Y-85716428D01*
X159295714Y-85645000D01*
X159581429Y-85573571D01*
X159795714Y-85573571D01*
X160081429Y-85645000D01*
X160224286Y-85716428D01*
X160367143Y-85859286D01*
X160438571Y-86073571D01*
X160438571Y-86430714D01*
X160438571Y-84073571D02*
X159724286Y-84573571D01*
X160438571Y-84930714D02*
X158938571Y-84930714D01*
X158938571Y-84359286D01*
X159010000Y-84216428D01*
X159081429Y-84145000D01*
X159224286Y-84073571D01*
X159438571Y-84073571D01*
X159581429Y-84145000D01*
X159652857Y-84216428D01*
X159724286Y-84359286D01*
X159724286Y-84930714D01*
X158938571Y-83145000D02*
X158938571Y-82859286D01*
X159010000Y-82716428D01*
X159152857Y-82573571D01*
X159438571Y-82502143D01*
X159938571Y-82502143D01*
X160224286Y-82573571D01*
X160367143Y-82716428D01*
X160438571Y-82859286D01*
X160438571Y-83145000D01*
X160367143Y-83287857D01*
X160224286Y-83430714D01*
X159938571Y-83502143D01*
X159438571Y-83502143D01*
X159152857Y-83430714D01*
X159010000Y-83287857D01*
X158938571Y-83145000D01*
X160438571Y-81859285D02*
X158938571Y-81859285D01*
X160438571Y-81144999D02*
X158938571Y-81144999D01*
X158938571Y-80787856D01*
X159010000Y-80573571D01*
X159152857Y-80430713D01*
X159295714Y-80359285D01*
X159581429Y-80287856D01*
X159795714Y-80287856D01*
X160081429Y-80359285D01*
X160224286Y-80430713D01*
X160367143Y-80573571D01*
X160438571Y-80787856D01*
X160438571Y-81144999D01*
X160438571Y-78502142D02*
X158938571Y-78502142D01*
X159438571Y-77787856D02*
X160438571Y-77787856D01*
X159581429Y-77787856D02*
X159510000Y-77716428D01*
X159438571Y-77573570D01*
X159438571Y-77359285D01*
X159510000Y-77216428D01*
X159652857Y-77144999D01*
X160438571Y-77144999D01*
X159438571Y-76644999D02*
X159438571Y-76073570D01*
X158938571Y-76430713D02*
X160224286Y-76430713D01*
X160367143Y-76359285D01*
X160438571Y-76216427D01*
X160438571Y-76073570D01*
X160367143Y-75002142D02*
X160438571Y-75144999D01*
X160438571Y-75430713D01*
X160367143Y-75573570D01*
X160224286Y-75644999D01*
X159652857Y-75644999D01*
X159510000Y-75573570D01*
X159438571Y-75430713D01*
X159438571Y-75144999D01*
X159510000Y-75002142D01*
X159652857Y-74930713D01*
X159795714Y-74930713D01*
X159938571Y-75644999D01*
X160438571Y-74287856D02*
X159438571Y-74287856D01*
X159724286Y-74287856D02*
X159581429Y-74216428D01*
X159510000Y-74144999D01*
X159438571Y-74002142D01*
X159438571Y-73859285D01*
X159438571Y-73359285D02*
X160938571Y-73359285D01*
X159510000Y-73359285D02*
X159438571Y-73216428D01*
X159438571Y-72930714D01*
X159510000Y-72787857D01*
X159581429Y-72716428D01*
X159724286Y-72644999D01*
X160152857Y-72644999D01*
X160295714Y-72716428D01*
X160367143Y-72787857D01*
X160438571Y-72930714D01*
X160438571Y-73216428D01*
X160367143Y-73359285D01*
X160438571Y-71787856D02*
X160367143Y-71930714D01*
X160295714Y-72002142D01*
X160152857Y-72073571D01*
X159724286Y-72073571D01*
X159581429Y-72002142D01*
X159510000Y-71930714D01*
X159438571Y-71787856D01*
X159438571Y-71573571D01*
X159510000Y-71430714D01*
X159581429Y-71359285D01*
X159724286Y-71287856D01*
X160152857Y-71287856D01*
X160295714Y-71359285D01*
X160367143Y-71430714D01*
X160438571Y-71573571D01*
X160438571Y-71787856D01*
X160367143Y-70716428D02*
X160438571Y-70573571D01*
X160438571Y-70287856D01*
X160367143Y-70144999D01*
X160224286Y-70073571D01*
X160152857Y-70073571D01*
X160010000Y-70144999D01*
X159938571Y-70287856D01*
X159938571Y-70502142D01*
X159867143Y-70644999D01*
X159724286Y-70716428D01*
X159652857Y-70716428D01*
X159510000Y-70644999D01*
X159438571Y-70502142D01*
X159438571Y-70287856D01*
X159510000Y-70144999D01*
X160367143Y-68859285D02*
X160438571Y-69002142D01*
X160438571Y-69287856D01*
X160367143Y-69430713D01*
X160224286Y-69502142D01*
X159652857Y-69502142D01*
X159510000Y-69430713D01*
X159438571Y-69287856D01*
X159438571Y-69002142D01*
X159510000Y-68859285D01*
X159652857Y-68787856D01*
X159795714Y-68787856D01*
X159938571Y-69502142D01*
X160438571Y-68144999D02*
X159438571Y-68144999D01*
X159724286Y-68144999D02*
X159581429Y-68073571D01*
X159510000Y-68002142D01*
X159438571Y-67859285D01*
X159438571Y-67716428D01*
X159652857Y-65573571D02*
X159724286Y-65359285D01*
X159795714Y-65287857D01*
X159938571Y-65216428D01*
X160152857Y-65216428D01*
X160295714Y-65287857D01*
X160367143Y-65359285D01*
X160438571Y-65502143D01*
X160438571Y-66073571D01*
X158938571Y-66073571D01*
X158938571Y-65573571D01*
X159010000Y-65430714D01*
X159081429Y-65359285D01*
X159224286Y-65287857D01*
X159367143Y-65287857D01*
X159510000Y-65359285D01*
X159581429Y-65430714D01*
X159652857Y-65573571D01*
X159652857Y-66073571D01*
X160438571Y-64359285D02*
X160367143Y-64502143D01*
X160295714Y-64573571D01*
X160152857Y-64645000D01*
X159724286Y-64645000D01*
X159581429Y-64573571D01*
X159510000Y-64502143D01*
X159438571Y-64359285D01*
X159438571Y-64145000D01*
X159510000Y-64002143D01*
X159581429Y-63930714D01*
X159724286Y-63859285D01*
X160152857Y-63859285D01*
X160295714Y-63930714D01*
X160367143Y-64002143D01*
X160438571Y-64145000D01*
X160438571Y-64359285D01*
X160438571Y-62573571D02*
X159652857Y-62573571D01*
X159510000Y-62645000D01*
X159438571Y-62787857D01*
X159438571Y-63073571D01*
X159510000Y-63216428D01*
X160367143Y-62573571D02*
X160438571Y-62716428D01*
X160438571Y-63073571D01*
X160367143Y-63216428D01*
X160224286Y-63287857D01*
X160081429Y-63287857D01*
X159938571Y-63216428D01*
X159867143Y-63073571D01*
X159867143Y-62716428D01*
X159795714Y-62573571D01*
X160438571Y-61859285D02*
X159438571Y-61859285D01*
X159724286Y-61859285D02*
X159581429Y-61787857D01*
X159510000Y-61716428D01*
X159438571Y-61573571D01*
X159438571Y-61430714D01*
X160438571Y-60287857D02*
X158938571Y-60287857D01*
X160367143Y-60287857D02*
X160438571Y-60430714D01*
X160438571Y-60716428D01*
X160367143Y-60859286D01*
X160295714Y-60930714D01*
X160152857Y-61002143D01*
X159724286Y-61002143D01*
X159581429Y-60930714D01*
X159510000Y-60859286D01*
X159438571Y-60716428D01*
X159438571Y-60430714D01*
X159510000Y-60287857D01*
D12*
X102286000Y-50000000D02*
G75*
G03X102286000Y-50000000I-2286000J0D01*
G01*
X118875000Y-73315000D02*
X120875000Y-73315000D01*
X120875000Y-71265000D02*
X118875000Y-71265000D01*
X129030000Y-71175000D02*
X127030000Y-71175000D01*
X127030000Y-73225000D02*
X129030000Y-73225000D01*
X102480000Y-56590000D02*
X104480000Y-56590000D01*
X104480000Y-53640000D02*
X102480000Y-53640000D01*
X118335000Y-57695000D02*
X120335000Y-57695000D01*
X120335000Y-55645000D02*
X118335000Y-55645000D01*
X129030000Y-55555000D02*
X127030000Y-55555000D01*
X127030000Y-57605000D02*
X129030000Y-57605000D01*
X105370000Y-72410000D02*
X103370000Y-72410000D01*
X103370000Y-70260000D02*
X105370000Y-70260000D01*
X105065000Y-76835000D02*
X103065000Y-76835000D01*
X103065000Y-74685000D02*
X105065000Y-74685000D01*
X103325000Y-60590000D02*
X103325000Y-62590000D01*
X101175000Y-62590000D02*
X101175000Y-60590000D01*
X105905000Y-62130000D02*
X105905000Y-60130000D01*
X108055000Y-60130000D02*
X108055000Y-62130000D01*
X105600000Y-83000000D02*
X105600000Y-81000000D01*
X107750000Y-81000000D02*
X107750000Y-83000000D01*
X148185000Y-60565000D02*
X146915000Y-60565000D01*
X148185000Y-67915000D02*
X146915000Y-67915000D01*
X110575000Y-67915000D02*
X111845000Y-67915000D01*
X110575000Y-60565000D02*
X111845000Y-60565000D01*
X148185000Y-60565000D02*
X148185000Y-67915000D01*
X110575000Y-60565000D02*
X110575000Y-67915000D01*
X146915000Y-60565000D02*
X146915000Y-59630000D01*
X148080000Y-75945000D02*
X146810000Y-75945000D01*
X148080000Y-83295000D02*
X146810000Y-83295000D01*
X110470000Y-83295000D02*
X111740000Y-83295000D01*
X110470000Y-75945000D02*
X111740000Y-75945000D01*
X148080000Y-75945000D02*
X148080000Y-83295000D01*
X110470000Y-75945000D02*
X110470000Y-83295000D01*
X146810000Y-75945000D02*
X146810000Y-75010000D01*
X160546000Y-50000000D02*
G75*
G03X160546000Y-50000000I-2286000J0D01*
G01*
X98900000Y-86355000D02*
X98900000Y-88355000D01*
X101850000Y-88355000D02*
X101850000Y-86355000D01*
X98785000Y-59130000D02*
X98785000Y-57130000D01*
X96735000Y-57130000D02*
X96735000Y-59130000D01*
X97857143Y-47404381D02*
X97857143Y-46404381D01*
X97857143Y-46880571D02*
X98428572Y-46880571D01*
X98428572Y-47404381D02*
X98428572Y-46404381D01*
X99095238Y-46404381D02*
X99285715Y-46404381D01*
X99380953Y-46452000D01*
X99476191Y-46547238D01*
X99523810Y-46737714D01*
X99523810Y-47071048D01*
X99476191Y-47261524D01*
X99380953Y-47356762D01*
X99285715Y-47404381D01*
X99095238Y-47404381D01*
X99000000Y-47356762D01*
X98904762Y-47261524D01*
X98857143Y-47071048D01*
X98857143Y-46737714D01*
X98904762Y-46547238D01*
X99000000Y-46452000D01*
X99095238Y-46404381D01*
X100428572Y-47404381D02*
X99952381Y-47404381D01*
X99952381Y-46404381D01*
X100761905Y-46880571D02*
X101095239Y-46880571D01*
X101238096Y-47404381D02*
X100761905Y-47404381D01*
X100761905Y-46404381D01*
X101238096Y-46404381D01*
X102190477Y-47404381D02*
X101619048Y-47404381D01*
X101904762Y-47404381D02*
X101904762Y-46404381D01*
X101809524Y-46547238D01*
X101714286Y-46642476D01*
X101619048Y-46690095D01*
X114648334Y-72702143D02*
X114600715Y-72749762D01*
X114457858Y-72797381D01*
X114362620Y-72797381D01*
X114219762Y-72749762D01*
X114124524Y-72654524D01*
X114076905Y-72559286D01*
X114029286Y-72368810D01*
X114029286Y-72225952D01*
X114076905Y-72035476D01*
X114124524Y-71940238D01*
X114219762Y-71845000D01*
X114362620Y-71797381D01*
X114457858Y-71797381D01*
X114600715Y-71845000D01*
X114648334Y-71892619D01*
X115600715Y-72797381D02*
X115029286Y-72797381D01*
X115315000Y-72797381D02*
X115315000Y-71797381D01*
X115219762Y-71940238D01*
X115124524Y-72035476D01*
X115029286Y-72083095D01*
X133308334Y-72762143D02*
X133260715Y-72809762D01*
X133117858Y-72857381D01*
X133022620Y-72857381D01*
X132879762Y-72809762D01*
X132784524Y-72714524D01*
X132736905Y-72619286D01*
X132689286Y-72428810D01*
X132689286Y-72285952D01*
X132736905Y-72095476D01*
X132784524Y-72000238D01*
X132879762Y-71905000D01*
X133022620Y-71857381D01*
X133117858Y-71857381D01*
X133260715Y-71905000D01*
X133308334Y-71952619D01*
X133689286Y-71952619D02*
X133736905Y-71905000D01*
X133832143Y-71857381D01*
X134070239Y-71857381D01*
X134165477Y-71905000D01*
X134213096Y-71952619D01*
X134260715Y-72047857D01*
X134260715Y-72143095D01*
X134213096Y-72285952D01*
X133641667Y-72857381D01*
X134260715Y-72857381D01*
X108103334Y-55897143D02*
X108055715Y-55944762D01*
X107912858Y-55992381D01*
X107817620Y-55992381D01*
X107674762Y-55944762D01*
X107579524Y-55849524D01*
X107531905Y-55754286D01*
X107484286Y-55563810D01*
X107484286Y-55420952D01*
X107531905Y-55230476D01*
X107579524Y-55135238D01*
X107674762Y-55040000D01*
X107817620Y-54992381D01*
X107912858Y-54992381D01*
X108055715Y-55040000D01*
X108103334Y-55087619D01*
X108436667Y-54992381D02*
X109055715Y-54992381D01*
X108722381Y-55373333D01*
X108865239Y-55373333D01*
X108960477Y-55420952D01*
X109008096Y-55468571D01*
X109055715Y-55563810D01*
X109055715Y-55801905D01*
X109008096Y-55897143D01*
X108960477Y-55944762D01*
X108865239Y-55992381D01*
X108579524Y-55992381D01*
X108484286Y-55944762D01*
X108436667Y-55897143D01*
X114108334Y-56737143D02*
X114060715Y-56784762D01*
X113917858Y-56832381D01*
X113822620Y-56832381D01*
X113679762Y-56784762D01*
X113584524Y-56689524D01*
X113536905Y-56594286D01*
X113489286Y-56403810D01*
X113489286Y-56260952D01*
X113536905Y-56070476D01*
X113584524Y-55975238D01*
X113679762Y-55880000D01*
X113822620Y-55832381D01*
X113917858Y-55832381D01*
X114060715Y-55880000D01*
X114108334Y-55927619D01*
X114965477Y-56165714D02*
X114965477Y-56832381D01*
X114727381Y-55784762D02*
X114489286Y-56499048D01*
X115108334Y-56499048D01*
X127863334Y-54637143D02*
X127815715Y-54684762D01*
X127672858Y-54732381D01*
X127577620Y-54732381D01*
X127434762Y-54684762D01*
X127339524Y-54589524D01*
X127291905Y-54494286D01*
X127244286Y-54303810D01*
X127244286Y-54160952D01*
X127291905Y-53970476D01*
X127339524Y-53875238D01*
X127434762Y-53780000D01*
X127577620Y-53732381D01*
X127672858Y-53732381D01*
X127815715Y-53780000D01*
X127863334Y-53827619D01*
X128768096Y-53732381D02*
X128291905Y-53732381D01*
X128244286Y-54208571D01*
X128291905Y-54160952D01*
X128387143Y-54113333D01*
X128625239Y-54113333D01*
X128720477Y-54160952D01*
X128768096Y-54208571D01*
X128815715Y-54303810D01*
X128815715Y-54541905D01*
X128768096Y-54637143D01*
X128720477Y-54684762D01*
X128625239Y-54732381D01*
X128387143Y-54732381D01*
X128291905Y-54684762D01*
X128244286Y-54637143D01*
X138261905Y-87737381D02*
X138261905Y-86737381D01*
X138642858Y-86737381D01*
X138738096Y-86785000D01*
X138785715Y-86832619D01*
X138833334Y-86927857D01*
X138833334Y-87070714D01*
X138785715Y-87165952D01*
X138738096Y-87213571D01*
X138642858Y-87261190D01*
X138261905Y-87261190D01*
X139785715Y-87737381D02*
X139214286Y-87737381D01*
X139500000Y-87737381D02*
X139500000Y-86737381D01*
X139404762Y-86880238D01*
X139309524Y-86975476D01*
X139214286Y-87023095D01*
X136041905Y-54672381D02*
X136041905Y-53672381D01*
X136422858Y-53672381D01*
X136518096Y-53720000D01*
X136565715Y-53767619D01*
X136613334Y-53862857D01*
X136613334Y-54005714D01*
X136565715Y-54100952D01*
X136518096Y-54148571D01*
X136422858Y-54196190D01*
X136041905Y-54196190D01*
X136994286Y-53767619D02*
X137041905Y-53720000D01*
X137137143Y-53672381D01*
X137375239Y-53672381D01*
X137470477Y-53720000D01*
X137518096Y-53767619D01*
X137565715Y-53862857D01*
X137565715Y-53958095D01*
X137518096Y-54100952D01*
X136946667Y-54672381D01*
X137565715Y-54672381D01*
X104203334Y-69487381D02*
X103870000Y-69011190D01*
X103631905Y-69487381D02*
X103631905Y-68487381D01*
X104012858Y-68487381D01*
X104108096Y-68535000D01*
X104155715Y-68582619D01*
X104203334Y-68677857D01*
X104203334Y-68820714D01*
X104155715Y-68915952D01*
X104108096Y-68963571D01*
X104012858Y-69011190D01*
X103631905Y-69011190D01*
X105155715Y-69487381D02*
X104584286Y-69487381D01*
X104870000Y-69487381D02*
X104870000Y-68487381D01*
X104774762Y-68630238D01*
X104679524Y-68725476D01*
X104584286Y-68773095D01*
X103898334Y-73912381D02*
X103565000Y-73436190D01*
X103326905Y-73912381D02*
X103326905Y-72912381D01*
X103707858Y-72912381D01*
X103803096Y-72960000D01*
X103850715Y-73007619D01*
X103898334Y-73102857D01*
X103898334Y-73245714D01*
X103850715Y-73340952D01*
X103803096Y-73388571D01*
X103707858Y-73436190D01*
X103326905Y-73436190D01*
X104279286Y-73007619D02*
X104326905Y-72960000D01*
X104422143Y-72912381D01*
X104660239Y-72912381D01*
X104755477Y-72960000D01*
X104803096Y-73007619D01*
X104850715Y-73102857D01*
X104850715Y-73198095D01*
X104803096Y-73340952D01*
X104231667Y-73912381D01*
X104850715Y-73912381D01*
X101882381Y-66991666D02*
X101406190Y-67325000D01*
X101882381Y-67563095D02*
X100882381Y-67563095D01*
X100882381Y-67182142D01*
X100930000Y-67086904D01*
X100977619Y-67039285D01*
X101072857Y-66991666D01*
X101215714Y-66991666D01*
X101310952Y-67039285D01*
X101358571Y-67086904D01*
X101406190Y-67182142D01*
X101406190Y-67563095D01*
X100882381Y-66658333D02*
X100882381Y-66039285D01*
X101263333Y-66372619D01*
X101263333Y-66229761D01*
X101310952Y-66134523D01*
X101358571Y-66086904D01*
X101453810Y-66039285D01*
X101691905Y-66039285D01*
X101787143Y-66086904D01*
X101834762Y-66134523D01*
X101882381Y-66229761D01*
X101882381Y-66515476D01*
X101834762Y-66610714D01*
X101787143Y-66658333D01*
X107162381Y-66391666D02*
X106686190Y-66725000D01*
X107162381Y-66963095D02*
X106162381Y-66963095D01*
X106162381Y-66582142D01*
X106210000Y-66486904D01*
X106257619Y-66439285D01*
X106352857Y-66391666D01*
X106495714Y-66391666D01*
X106590952Y-66439285D01*
X106638571Y-66486904D01*
X106686190Y-66582142D01*
X106686190Y-66963095D01*
X106495714Y-65534523D02*
X107162381Y-65534523D01*
X106114762Y-65772619D02*
X106829048Y-66010714D01*
X106829048Y-65391666D01*
X109427381Y-82166666D02*
X108951190Y-82500000D01*
X109427381Y-82738095D02*
X108427381Y-82738095D01*
X108427381Y-82357142D01*
X108475000Y-82261904D01*
X108522619Y-82214285D01*
X108617857Y-82166666D01*
X108760714Y-82166666D01*
X108855952Y-82214285D01*
X108903571Y-82261904D01*
X108951190Y-82357142D01*
X108951190Y-82738095D01*
X108427381Y-81261904D02*
X108427381Y-81738095D01*
X108903571Y-81785714D01*
X108855952Y-81738095D01*
X108808333Y-81642857D01*
X108808333Y-81404761D01*
X108855952Y-81309523D01*
X108903571Y-81261904D01*
X108998810Y-81214285D01*
X109236905Y-81214285D01*
X109332143Y-81261904D01*
X109379762Y-81309523D01*
X109427381Y-81404761D01*
X109427381Y-81642857D01*
X109379762Y-81738095D01*
X109332143Y-81785714D01*
X150932381Y-64941905D02*
X151741905Y-64941905D01*
X151837143Y-64894286D01*
X151884762Y-64846667D01*
X151932381Y-64751429D01*
X151932381Y-64560952D01*
X151884762Y-64465714D01*
X151837143Y-64418095D01*
X151741905Y-64370476D01*
X150932381Y-64370476D01*
X151932381Y-63370476D02*
X151932381Y-63941905D01*
X151932381Y-63656191D02*
X150932381Y-63656191D01*
X151075238Y-63751429D01*
X151170476Y-63846667D01*
X151218095Y-63941905D01*
X150512381Y-80066905D02*
X151321905Y-80066905D01*
X151417143Y-80019286D01*
X151464762Y-79971667D01*
X151512381Y-79876429D01*
X151512381Y-79685952D01*
X151464762Y-79590714D01*
X151417143Y-79543095D01*
X151321905Y-79495476D01*
X150512381Y-79495476D01*
X150607619Y-79066905D02*
X150560000Y-79019286D01*
X150512381Y-78924048D01*
X150512381Y-78685952D01*
X150560000Y-78590714D01*
X150607619Y-78543095D01*
X150702857Y-78495476D01*
X150798095Y-78495476D01*
X150940952Y-78543095D01*
X151512381Y-79114524D01*
X151512381Y-78495476D01*
X156117143Y-47404381D02*
X156117143Y-46404381D01*
X156117143Y-46880571D02*
X156688572Y-46880571D01*
X156688572Y-47404381D02*
X156688572Y-46404381D01*
X157355238Y-46404381D02*
X157545715Y-46404381D01*
X157640953Y-46452000D01*
X157736191Y-46547238D01*
X157783810Y-46737714D01*
X157783810Y-47071048D01*
X157736191Y-47261524D01*
X157640953Y-47356762D01*
X157545715Y-47404381D01*
X157355238Y-47404381D01*
X157260000Y-47356762D01*
X157164762Y-47261524D01*
X157117143Y-47071048D01*
X157117143Y-46737714D01*
X157164762Y-46547238D01*
X157260000Y-46452000D01*
X157355238Y-46404381D01*
X158688572Y-47404381D02*
X158212381Y-47404381D01*
X158212381Y-46404381D01*
X159021905Y-46880571D02*
X159355239Y-46880571D01*
X159498096Y-47404381D02*
X159021905Y-47404381D01*
X159021905Y-46404381D01*
X159498096Y-46404381D01*
X159879048Y-46499619D02*
X159926667Y-46452000D01*
X160021905Y-46404381D01*
X160260001Y-46404381D01*
X160355239Y-46452000D01*
X160402858Y-46499619D01*
X160450477Y-46594857D01*
X160450477Y-46690095D01*
X160402858Y-46832952D01*
X159831429Y-47404381D01*
X160450477Y-47404381D01*
X98032143Y-87521666D02*
X98079762Y-87569285D01*
X98127381Y-87712142D01*
X98127381Y-87807380D01*
X98079762Y-87950238D01*
X97984524Y-88045476D01*
X97889286Y-88093095D01*
X97698810Y-88140714D01*
X97555952Y-88140714D01*
X97365476Y-88093095D01*
X97270238Y-88045476D01*
X97175000Y-87950238D01*
X97127381Y-87807380D01*
X97127381Y-87712142D01*
X97175000Y-87569285D01*
X97222619Y-87521666D01*
X97127381Y-86664523D02*
X97127381Y-86855000D01*
X97175000Y-86950238D01*
X97222619Y-86997857D01*
X97365476Y-87093095D01*
X97555952Y-87140714D01*
X97936905Y-87140714D01*
X98032143Y-87093095D01*
X98079762Y-87045476D01*
X98127381Y-86950238D01*
X98127381Y-86759761D01*
X98079762Y-86664523D01*
X98032143Y-86616904D01*
X97936905Y-86569285D01*
X97698810Y-86569285D01*
X97603571Y-86616904D01*
X97555952Y-86664523D01*
X97508333Y-86759761D01*
X97508333Y-86950238D01*
X97555952Y-87045476D01*
X97603571Y-87093095D01*
X97698810Y-87140714D01*
X98127143Y-63566666D02*
X98174762Y-63614285D01*
X98222381Y-63757142D01*
X98222381Y-63852380D01*
X98174762Y-63995238D01*
X98079524Y-64090476D01*
X97984286Y-64138095D01*
X97793810Y-64185714D01*
X97650952Y-64185714D01*
X97460476Y-64138095D01*
X97365238Y-64090476D01*
X97270000Y-63995238D01*
X97222381Y-63852380D01*
X97222381Y-63757142D01*
X97270000Y-63614285D01*
X97317619Y-63566666D01*
X97222381Y-63233333D02*
X97222381Y-62566666D01*
X98222381Y-62995238D01*
M02*
